<svg xmlns="http://www.w3.org/2000/svg" xmlns:xlink="http://www.w3.org/1999/xlink" width="40" height="40" viewBox="0 0 40 40"><defs><clipPath id="b"><rect width="40" height="40"/></clipPath></defs><g id="a" clip-path="url(#b)"><g transform="translate(-168 -107.013)"><path d="M201.17,119.232h4.784a.969.969,0,0,1,.891,1.258L202.417,136H182.476l-6.58-22.784a.937.937,0,0,0-.89-.694H169" transform="translate(0 -3.101)" fill="none" stroke="#fff" stroke-linecap="round" stroke-linejoin="round" stroke-width="2"/><line x2="5.107" transform="translate(178.759 118.65)" stroke-width="2" stroke="#fff" stroke-linecap="round" stroke-linejoin="round" fill="none"/><ellipse cx="2.651" cy="2.548" rx="2.651" ry="2.548" transform="translate(180.984 137.326)" stroke-width="2" stroke="#fff" stroke-linecap="round" stroke-linejoin="round" fill="none"/><ellipse cx="2.651" cy="2.548" rx="2.651" ry="2.548" transform="translate(198.478 137.326)" stroke-width="2" stroke="#fff" stroke-linecap="round" stroke-linejoin="round" fill="none"/><line x2="6.058" transform="translate(189.262 138.054)" stroke-width="2" stroke="#fff" stroke-linecap="round" stroke-linejoin="round" fill="none"/><path d="M-4918.725-10591.842l1.044,1.676-4.416,17.293h-19.468l-4.441-18.969Z" transform="translate(5124.151 10706.814)" fill="#fff"/></g></g></svg>