<svg xmlns="http://www.w3.org/2000/svg" xmlns:xlink="http://www.w3.org/1999/xlink" width="40" height="40" viewBox="0 0 40 40"><defs><clipPath id="b"><rect width="40" height="40"/></clipPath></defs><g id="a" clip-path="url(#b)"><path d="M434.505,528.539a8.736,8.736,0,0,0-6.272-2.154,7.355,7.355,0,0,0-2.261.372,9.282,9.282,0,0,0-2.145,1.009q-.991.633-1.708,1.19a16.466,16.466,0,0,0-1.358,1.18,16.416,16.416,0,0,0-1.358-1.18q-.716-.556-1.708-1.19a9.331,9.331,0,0,0-2.146-1.009,7.289,7.289,0,0,0-2.261-.372,8.745,8.745,0,0,0-6.272,2.154,7.846,7.846,0,0,0-2.271,5.976,7.392,7.392,0,0,0,.419,2.4,10.238,10.238,0,0,0,.957,2.1,15.414,15.414,0,0,0,1.214,1.694c.452.551.783.928.992,1.138a5.911,5.911,0,0,0,.491.451l11.151,10.46a1.143,1.143,0,0,0,1.571,0l11.133-10.426q4.094-3.98,4.092-7.82a7.843,7.843,0,0,0-2.271-5.976" transform="translate(-400.581 -519.716)" fill="#fff"/></g></svg>