<svg xmlns="http://www.w3.org/2000/svg" xmlns:xlink="http://www.w3.org/1999/xlink" width="135" height="20" viewBox="0 0 135 20"><defs><clipPath id="b"><rect width="135" height="20"/></clipPath></defs><g id="a" clip-path="url(#b)"><g transform="translate(18.387 4.579)"><path d="M4.575-2.217H2.012L1.563-1.172A1.654,1.654,0,0,0,1.4-.6a.335.335,0,0,0,.144.266,1.259,1.259,0,0,0,.623.149V0H.078V-.181a1.123,1.123,0,0,0,.537-.19,2.991,2.991,0,0,0,.552-.952L3.5-6.772h.171l2.3,5.508A2.511,2.511,0,0,0,6.477-.4a1.03,1.03,0,0,0,.632.222V0H4.5V-.181a.979.979,0,0,0,.535-.132.34.34,0,0,0,.139-.273,2.024,2.024,0,0,0-.2-.679Zm-.137-.361L3.315-5.254,2.163-2.578ZM10.21-3.672l2.441,2.427a4.458,4.458,0,0,0,1.025.818,2.188,2.188,0,0,0,.85.247V0H11.377V-.181a.68.68,0,0,0,.408-.1.269.269,0,0,0,.125-.212.463.463,0,0,0-.046-.21,1.86,1.86,0,0,0-.305-.347L9.272-3.306v2.134a2.192,2.192,0,0,0,.063.664.437.437,0,0,0,.205.21.9.9,0,0,0,.444.117h.225V0H7.388V-.181h.234a.707.707,0,0,0,.6-.239,1.487,1.487,0,0,0,.117-.752V-5.449a2.247,2.247,0,0,0-.063-.669.446.446,0,0,0-.2-.205.925.925,0,0,0-.449-.117H7.388v-.181H10.21v.181H9.985a.948.948,0,0,0-.444.112.424.424,0,0,0-.21.234,2.232,2.232,0,0,0-.059.645v2.026q.1-.093.669-.62a14.688,14.688,0,0,0,1.753-1.772.64.64,0,0,0,.132-.342.252.252,0,0,0-.1-.2.546.546,0,0,0-.347-.085h-.151v-.181h2.432v.181a1.447,1.447,0,0,0-.391.059,2.006,2.006,0,0,0-.43.208,4.208,4.208,0,0,0-.625.5q-.107.1-.991,1ZM16.533-6.26v2.617h1.455a1.186,1.186,0,0,0,.757-.171,1.1,1.1,0,0,0,.283-.791h.181v2.3h-.181a2.52,2.52,0,0,0-.137-.62.611.611,0,0,0-.288-.269,1.471,1.471,0,0,0-.615-.1H16.533V-1.1a2.027,2.027,0,0,0,.039.535.307.307,0,0,0,.137.151.83.83,0,0,0,.371.056H18.2a3.043,3.043,0,0,0,.815-.078,1.216,1.216,0,0,0,.488-.308,3.757,3.757,0,0,0,.62-.913h.2L19.751,0h-5.1V-.181h.234a.929.929,0,0,0,.444-.112.411.411,0,0,0,.212-.234,2.3,2.3,0,0,0,.056-.64v-4.3a1.424,1.424,0,0,0-.127-.776.756.756,0,0,0-.586-.2h-.234v-.181h5.1l.073,1.45h-.19a2.288,2.288,0,0,0-.227-.718.78.78,0,0,0-.369-.3,2.212,2.212,0,0,0-.688-.073Zm8.6-.513v2.29h-.181a2.853,2.853,0,0,0-.315-1.05,1.638,1.638,0,0,0-.647-.62,1.79,1.79,0,0,0-.869-.229,1.182,1.182,0,0,0-.84.31.943.943,0,0,0-.332.706.836.836,0,0,0,.21.552,5.4,5.4,0,0,0,1.44.977,9.954,9.954,0,0,1,1.267.764,1.864,1.864,0,0,1,.522.627,1.653,1.653,0,0,1,.183.757,1.714,1.714,0,0,1-.583,1.3,2.113,2.113,0,0,1-1.5.544,3.178,3.178,0,0,1-.542-.044,5.533,5.533,0,0,1-.627-.178,2.813,2.813,0,0,0-.6-.154.256.256,0,0,0-.193.073.583.583,0,0,0-.1.3H21.24V-2.119h.181a3.209,3.209,0,0,0,.342,1.067,1.642,1.642,0,0,0,.657.588,2.036,2.036,0,0,0,.969.234,1.378,1.378,0,0,0,.964-.322,1,1,0,0,0,.354-.762,1.033,1.033,0,0,0-.134-.493,1.47,1.47,0,0,0-.417-.464,11.972,11.972,0,0,0-1.04-.623,10.089,10.089,0,0,1-1.208-.759,2.048,2.048,0,0,1-.544-.625,1.55,1.55,0,0,1-.186-.752,1.63,1.63,0,0,1,.547-1.228,1.948,1.948,0,0,1,1.392-.515,2.792,2.792,0,0,1,1.118.259,1.15,1.15,0,0,0,.386.122.291.291,0,0,0,.208-.076.6.6,0,0,0,.129-.305ZM29.2-.181V0H26.362V-.181H26.6a.707.707,0,0,0,.6-.239,1.487,1.487,0,0,0,.117-.752V-5.449a2.192,2.192,0,0,0-.063-.664.44.44,0,0,0-.2-.21A.925.925,0,0,0,26.6-6.44h-.234v-.181H29.2v.181H28.96a.7.7,0,0,0-.591.239,1.435,1.435,0,0,0-.122.752v4.277a2.192,2.192,0,0,0,.063.664.437.437,0,0,0,.205.21.9.9,0,0,0,.444.117ZM29.614,0V-.181h.249a.658.658,0,0,0,.6-.269,1.53,1.53,0,0,0,.107-.723V-5.449a1.367,1.367,0,0,0-.137-.776.717.717,0,0,0-.566-.215h-.249v-.181h2.7a5.886,5.886,0,0,1,2.258.337,2.687,2.687,0,0,1,1.245,1.123,3.464,3.464,0,0,1,.471,1.816,3.313,3.313,0,0,1-.84,2.31A3.694,3.694,0,0,1,32.573,0ZM31.5-.479a4.987,4.987,0,0,0,1.04.137,2.469,2.469,0,0,0,1.88-.8A3.027,3.027,0,0,0,35.171-3.3a3.023,3.023,0,0,0-.747-2.163A2.522,2.522,0,0,0,32.5-6.25a4.146,4.146,0,0,0-1,.142ZM38.755-6.26v2.617H40.21a1.186,1.186,0,0,0,.757-.171A1.1,1.1,0,0,0,41.25-4.6h.181v2.3H41.25a2.52,2.52,0,0,0-.137-.62.611.611,0,0,0-.288-.269,1.471,1.471,0,0,0-.615-.1H38.755V-1.1a2.027,2.027,0,0,0,.039.535.307.307,0,0,0,.137.151.83.83,0,0,0,.371.056h1.123a3.043,3.043,0,0,0,.815-.078,1.216,1.216,0,0,0,.488-.308,3.757,3.757,0,0,0,.62-.913h.2L41.973,0h-5.1V-.181H37.1a.929.929,0,0,0,.444-.112.411.411,0,0,0,.212-.234,2.3,2.3,0,0,0,.056-.64v-4.3a1.424,1.424,0,0,0-.127-.776.756.756,0,0,0-.586-.2H36.87v-.181h5.1l.073,1.45h-.19a2.288,2.288,0,0,0-.227-.718.78.78,0,0,0-.369-.3,2.212,2.212,0,0,0-.688-.073Z" transform="translate(0 9)" fill="#fff"/></g><g transform="translate(1.728 8.047)"><path d="M2.893-3.311l.037.776H2.837a.938.938,0,0,0-.073-.293.49.49,0,0,0-.2-.209A.7.7,0,0,0,2.231-3.1H1.765V-.574a.677.677,0,0,0,.066.381.367.367,0,0,0,.286.1h.115V0H.828V-.09H.945a.336.336,0,0,0,.3-.127A.741.741,0,0,0,1.3-.574V-3.1H.9a1.11,1.11,0,0,0-.33.034.453.453,0,0,0-.217.178.722.722,0,0,0-.107.356H.151L.19-3.311ZM4.082-1.775H5.62v-.947a1.108,1.108,0,0,0-.032-.334.219.219,0,0,0-.1-.1.449.449,0,0,0-.222-.059H5.146v-.09H6.563v.09H6.445a.464.464,0,0,0-.222.056.205.205,0,0,0-.106.118,1.177,1.177,0,0,0-.028.323V-.586a1.1,1.1,0,0,0,.032.332.22.22,0,0,0,.1.1.463.463,0,0,0,.225.059h.117V0H5.146V-.09h.117a.351.351,0,0,0,.3-.12A.718.718,0,0,0,5.62-.586V-1.594H4.082V-.586a1.1,1.1,0,0,0,.032.332.219.219,0,0,0,.1.1.449.449,0,0,0,.222.059h.12V0H3.14V-.09h.117a.353.353,0,0,0,.3-.12.744.744,0,0,0,.059-.376V-2.722a1.108,1.108,0,0,0-.032-.334.22.22,0,0,0-.1-.1.463.463,0,0,0-.225-.059H3.14v-.09H4.558v.09h-.12a.464.464,0,0,0-.222.056.211.211,0,0,0-.1.118,1.13,1.13,0,0,0-.029.323ZM7.71-3.13v1.309h.728a.593.593,0,0,0,.378-.085.55.55,0,0,0,.142-.4h.09V-1.15h-.09a1.26,1.26,0,0,0-.068-.31.306.306,0,0,0-.144-.134.735.735,0,0,0-.308-.049H7.71V-.552a1.014,1.014,0,0,0,.02.267A.154.154,0,0,0,7.8-.209a.415.415,0,0,0,.186.028h.562A1.521,1.521,0,0,0,8.953-.22.608.608,0,0,0,9.2-.374a1.879,1.879,0,0,0,.31-.457h.1L9.319,0H6.768V-.09h.117a.464.464,0,0,0,.222-.056.205.205,0,0,0,.106-.117,1.149,1.149,0,0,0,.028-.32V-2.734a.712.712,0,0,0-.063-.388.378.378,0,0,0-.293-.1H6.768v-.09H9.319l.037.725h-.1a1.144,1.144,0,0,0-.114-.359.39.39,0,0,0-.184-.149,1.106,1.106,0,0,0-.344-.037Z" transform="translate(0 4)" fill="#fff"/></g><g transform="translate(129.62 4.652)"><text transform="translate(0 4)" fill="#fff" font-size="5" font-family="TimesNewRomanPSMT, Times New Roman"><tspan x="0" y="0">®</tspan></text></g><path d="M300.149,339.768l.228,4.468h-.228a6.137,6.137,0,0,0-1.3-2.888,2.7,2.7,0,0,0-2.026-.882,2.733,2.733,0,0,0-1.793.664,4.4,4.4,0,0,0-1.258,2.117,12.176,12.176,0,0,0-.459,3.615,9.87,9.87,0,0,0,.433,3.092,4.169,4.169,0,0,0,1.3,2.006,3.086,3.086,0,0,0,1.986.7,2.8,2.8,0,0,0,1.71-.548,6.817,6.817,0,0,0,1.63-2.176l.228.194a6.6,6.6,0,0,1-1.747,2.57,3.636,3.636,0,0,1-2.371.814,4.212,4.212,0,0,1-3.832-2.423,8.523,8.523,0,0,1-1.013-4.246,9.535,9.535,0,0,1,.668-3.615,5.976,5.976,0,0,1,1.838-2.554,4.09,4.09,0,0,1,2.558-.906,3.809,3.809,0,0,1,2.129.7.988.988,0,0,0,.441.213.432.432,0,0,0,.345-.184,1.734,1.734,0,0,0,.272-.727Z" transform="translate(-228.298 -335.756)" fill="#fff"/><g transform="translate(72.337 4.878)"><path d="M3.657-6.772a3,3,0,0,1,2.234.979A3.38,3.38,0,0,1,6.836-3.35a3.481,3.481,0,0,1-.952,2.5,3.071,3.071,0,0,1-2.3,1,3.054,3.054,0,0,1-2.3-.972,3.486,3.486,0,0,1-.93-2.515A3.35,3.35,0,0,1,1.426-5.908,3.169,3.169,0,0,1,3.657-6.772Zm-.093.356a1.747,1.747,0,0,0-1.426.659,3.727,3.727,0,0,0-.669,2.4,3.933,3.933,0,0,0,.693,2.5A1.713,1.713,0,0,0,3.569-.2,1.922,1.922,0,0,0,5.11-.923a3.548,3.548,0,0,0,.608-2.295,4.008,4.008,0,0,0-.669-2.534A1.8,1.8,0,0,0,3.564-6.416Zm9.39,4.585.161.034L12.549,0H7.422V-.181h.249a.666.666,0,0,0,.6-.273,1.576,1.576,0,0,0,.1-.723V-5.449a1.367,1.367,0,0,0-.137-.776.717.717,0,0,0-.566-.215H7.422v-.181h3v.181a1.829,1.829,0,0,0-.74.1.6.6,0,0,0-.291.259,2.131,2.131,0,0,0-.078.747v4.16A1.353,1.353,0,0,0,9.39-.62a.349.349,0,0,0,.181.151,3.17,3.17,0,0,0,.762.049h.483a3.5,3.5,0,0,0,1.069-.112,1.392,1.392,0,0,0,.562-.4A3.261,3.261,0,0,0,12.954-1.831Zm6.108,0,.161.034L18.657,0H13.53V-.181h.249a.666.666,0,0,0,.6-.273,1.576,1.576,0,0,0,.1-.723V-5.449a1.367,1.367,0,0,0-.137-.776.717.717,0,0,0-.566-.215H13.53v-.181h3v.181a1.829,1.829,0,0,0-.74.1.6.6,0,0,0-.291.259,2.131,2.131,0,0,0-.078.747v4.16A1.353,1.353,0,0,0,15.5-.62a.349.349,0,0,0,.181.151,3.17,3.17,0,0,0,.762.049h.483a3.5,3.5,0,0,0,1.069-.112,1.392,1.392,0,0,0,.562-.4A3.261,3.261,0,0,0,19.063-1.831ZM21.528-6.26v2.617h1.455a1.186,1.186,0,0,0,.757-.171,1.1,1.1,0,0,0,.283-.791H24.2v2.3h-.181a2.52,2.52,0,0,0-.137-.62.611.611,0,0,0-.288-.269,1.471,1.471,0,0,0-.615-.1H21.528V-1.1a2.027,2.027,0,0,0,.039.535.307.307,0,0,0,.137.151.83.83,0,0,0,.371.056H23.2a3.043,3.043,0,0,0,.815-.078A1.216,1.216,0,0,0,24.5-.747a3.757,3.757,0,0,0,.62-.913h.2L24.746,0h-5.1V-.181h.234a.929.929,0,0,0,.444-.112.411.411,0,0,0,.212-.234,2.3,2.3,0,0,0,.056-.64v-4.3a1.424,1.424,0,0,0-.127-.776.756.756,0,0,0-.586-.2h-.234v-.181h5.1l.073,1.45h-.19a2.288,2.288,0,0,0-.227-.718.78.78,0,0,0-.369-.3,2.212,2.212,0,0,0-.688-.073Zm10.039-.513.151,2.251h-.151A2.833,2.833,0,0,0,30.7-5.977a2.105,2.105,0,0,0-1.348-.444,2.193,2.193,0,0,0-1.191.334,2.212,2.212,0,0,0-.837,1.067A4.752,4.752,0,0,0,27.021-3.2a3.867,3.867,0,0,0,.288,1.558A2.159,2.159,0,0,0,28.176-.63,2.493,2.493,0,0,0,29.5-.278a2.291,2.291,0,0,0,1.138-.276,3.75,3.75,0,0,0,1.084-1.1l.151.1A3.476,3.476,0,0,1,30.708-.259a2.941,2.941,0,0,1-1.577.41,2.985,2.985,0,0,1-2.549-1.221,3.49,3.49,0,0,1-.674-2.139,3.8,3.8,0,0,1,.444-1.821,3.215,3.215,0,0,1,1.223-1.287,3.3,3.3,0,0,1,1.7-.457,3.119,3.119,0,0,1,1.416.352.768.768,0,0,0,.293.107.322.322,0,0,0,.229-.093.761.761,0,0,0,.181-.366ZM38-6.621l.073,1.553h-.186a1.875,1.875,0,0,0-.146-.586.98.98,0,0,0-.4-.417,1.4,1.4,0,0,0-.662-.134h-.933v5.059a1.355,1.355,0,0,0,.132.762.733.733,0,0,0,.571.205h.229V0H33.872V-.181h.234a.673.673,0,0,0,.6-.254,1.482,1.482,0,0,0,.107-.713V-6.206h-.8a2.219,2.219,0,0,0-.659.068.905.905,0,0,0-.435.356,1.443,1.443,0,0,0-.215.713H32.52L32.6-6.621Zm3.408,6.44V0H38.574V-.181h.234a.707.707,0,0,0,.6-.239,1.487,1.487,0,0,0,.117-.752V-5.449a2.192,2.192,0,0,0-.063-.664.44.44,0,0,0-.2-.21.925.925,0,0,0-.449-.117h-.234v-.181h2.837v.181h-.239a.7.7,0,0,0-.591.239,1.435,1.435,0,0,0-.122.752v4.277a2.192,2.192,0,0,0,.063.664.437.437,0,0,0,.205.21.9.9,0,0,0,.444.117Zm3.9-6.592a3,3,0,0,1,2.234.979,3.38,3.38,0,0,1,.945,2.444,3.481,3.481,0,0,1-.952,2.5,3.071,3.071,0,0,1-2.3,1,3.054,3.054,0,0,1-2.3-.972,3.486,3.486,0,0,1-.93-2.515,3.35,3.35,0,0,1,1.074-2.573A3.169,3.169,0,0,1,45.313-6.772Zm-.093.356a1.747,1.747,0,0,0-1.426.659,3.727,3.727,0,0,0-.669,2.4,3.933,3.933,0,0,0,.693,2.5A1.713,1.713,0,0,0,45.225-.2a1.922,1.922,0,0,0,1.541-.728,3.548,3.548,0,0,0,.608-2.295A4.008,4.008,0,0,0,46.7-5.752,1.8,1.8,0,0,0,45.22-6.416Zm3.525-.205h1.8L54.59-1.655V-5.474a1.314,1.314,0,0,0-.137-.762.724.724,0,0,0-.571-.205h-.229v-.181h2.3v.181h-.234a.673.673,0,0,0-.6.254,1.482,1.482,0,0,0-.107.713V.107h-.176L50.479-5.225v4.077a1.355,1.355,0,0,0,.132.762.733.733,0,0,0,.571.205h.234V0h-2.3V-.181h.229a.678.678,0,0,0,.6-.254,1.482,1.482,0,0,0,.107-.713v-4.6a3.018,3.018,0,0,0-.437-.444,1.6,1.6,0,0,0-.437-.2,1.556,1.556,0,0,0-.43-.044Z" transform="translate(0 9)" fill="#fff"/></g><g transform="translate(11.424 1.324)"><text transform="translate(0 15)" fill="#fff" font-size="17" font-family="TimesNewRomanPSMT, Times New Roman"><tspan x="0" y="0">L</tspan></text></g></g></svg>