<svg xmlns="http://www.w3.org/2000/svg" xmlns:xlink="http://www.w3.org/1999/xlink" width="183" height="20" viewBox="0 0 183 20"><defs><clipPath id="b"><rect width="183" height="20"/></clipPath></defs><g id="a" clip-path="url(#b)"><g transform="translate(-293 -82)"><path d="M13.758-4.395l.387.082L12.785,0H.48V-.434h.6A1.6,1.6,0,0,0,2.52-1.09a3.783,3.783,0,0,0,.246-1.734V-13.078a3.28,3.28,0,0,0-.328-1.863,1.722,1.722,0,0,0-1.359-.516H.48v-.434h7.2v.434a4.39,4.39,0,0,0-1.775.234,1.433,1.433,0,0,0-.7.621,5.113,5.113,0,0,0-.187,1.793v9.984A3.248,3.248,0,0,0,5.2-1.488a.837.837,0,0,0,.434.363,7.607,7.607,0,0,0,1.828.117h1.16a8.406,8.406,0,0,0,2.566-.27,3.342,3.342,0,0,0,1.348-.955A7.827,7.827,0,0,0,13.758-4.395ZM26.1-15.891l.176,3.727h-.445a4.5,4.5,0,0,0-.352-1.406,2.352,2.352,0,0,0-.967-1,3.371,3.371,0,0,0-1.588-.322H20.69V-2.754a3.251,3.251,0,0,0,.316,1.828,1.759,1.759,0,0,0,1.371.492h.551V0H16.19V-.434h.563a1.614,1.614,0,0,0,1.43-.609,3.556,3.556,0,0,0,.258-1.711V-14.895H16.53a5.326,5.326,0,0,0-1.582.164,2.172,2.172,0,0,0-1.043.855,3.463,3.463,0,0,0-.516,1.711h-.445l.188-3.727ZM27.047,0V-.434h.6a1.578,1.578,0,0,0,1.43-.645,3.673,3.673,0,0,0,.258-1.734V-13.078A3.28,3.28,0,0,0,29-14.941a1.722,1.722,0,0,0-1.359-.516h-.6v-.434h6.469a14.126,14.126,0,0,1,5.42.809,6.448,6.448,0,0,1,2.988,2.7,8.315,8.315,0,0,1,1.131,4.359A7.951,7.951,0,0,1,41.04-2.484Q38.778,0,34.149,0Zm4.535-1.148a11.969,11.969,0,0,0,2.5.328A5.926,5.926,0,0,0,38.59-2.73a7.264,7.264,0,0,0,1.793-5.18A7.255,7.255,0,0,0,38.59-13.1,6.053,6.053,0,0,0,33.985-15a9.951,9.951,0,0,0-2.4.34ZM63.938-16.254l.363,5.4h-.363a6.8,6.8,0,0,0-2.074-3.492A5.053,5.053,0,0,0,58.63-15.41a5.263,5.263,0,0,0-2.859.8,5.31,5.31,0,0,0-2.01,2.561,11.4,11.4,0,0,0-.732,4.371,9.282,9.282,0,0,0,.691,3.738A5.18,5.18,0,0,0,55.8-1.512a5.982,5.982,0,0,0,3.17.844A5.5,5.5,0,0,0,61.7-1.33a9,9,0,0,0,2.6-2.631l.363.234A8.343,8.343,0,0,1,61.876-.621a7.059,7.059,0,0,1-3.785.984,7.165,7.165,0,0,1-6.117-2.93A8.376,8.376,0,0,1,50.356-7.7a9.115,9.115,0,0,1,1.066-4.371,7.716,7.716,0,0,1,2.936-3.088,7.931,7.931,0,0,1,4.084-1.1,7.485,7.485,0,0,1,3.4.844,1.844,1.844,0,0,0,.7.258.774.774,0,0,0,.551-.223,1.826,1.826,0,0,0,.434-.879Zm7.319,5.2A4.757,4.757,0,0,1,75.171-9.2a5.686,5.686,0,0,1,1.254,3.633,6.841,6.841,0,0,1-.691,2.918,5.044,5.044,0,0,1-1.9,2.227,5.033,5.033,0,0,1-2.7.75,4.549,4.549,0,0,1-3.855-1.934,5.991,5.991,0,0,1-1.207-3.656A6.487,6.487,0,0,1,66.8-8.2a5,5,0,0,1,1.928-2.156A4.946,4.946,0,0,1,71.257-11.051Zm-.363.762a2.444,2.444,0,0,0-1.248.369,2.588,2.588,0,0,0-1.014,1.295,6.231,6.231,0,0,0-.387,2.379A8.288,8.288,0,0,0,69.177-2.2,2.773,2.773,0,0,0,71.632-.5a2.288,2.288,0,0,0,1.875-.937,5.329,5.329,0,0,0,.738-3.223,7.346,7.346,0,0,0-1.23-4.5A2.536,2.536,0,0,0,70.894-10.289ZM80.955-8.766q1.172-1.172,1.383-1.348a4.185,4.185,0,0,1,1.137-.691,3.205,3.205,0,0,1,1.207-.246,2.677,2.677,0,0,1,1.734.586,2.9,2.9,0,0,1,.973,1.7,7.962,7.962,0,0,1,2.039-1.846,3.621,3.621,0,0,1,1.711-.439,2.681,2.681,0,0,1,1.518.439A2.921,2.921,0,0,1,93.7-9.176a6.468,6.468,0,0,1,.258,2.133v4.617a4.2,4.2,0,0,0,.152,1.383,1,1,0,0,0,.434.439,2.178,2.178,0,0,0,1.031.182V0h-5.3V-.422h.223a1.864,1.864,0,0,0,1.078-.27,1.044,1.044,0,0,0,.387-.6,7.513,7.513,0,0,0,.047-1.137V-7.043A3.907,3.907,0,0,0,91.7-8.895a1.586,1.586,0,0,0-1.465-.75,2.792,2.792,0,0,0-1.248.311A6.766,6.766,0,0,0,87.47-8.18l-.023.129.023.5v5.121a4.417,4.417,0,0,0,.123,1.371,1,1,0,0,0,.463.451,2.653,2.653,0,0,0,1.16.182V0H83.79V-.422a2.486,2.486,0,0,0,1.225-.211,1.1,1.1,0,0,0,.463-.633,6.234,6.234,0,0,0,.059-1.16V-7.043A3.489,3.489,0,0,0,85.15-8.93a1.651,1.651,0,0,0-1.441-.75,2.588,2.588,0,0,0-1.254.34,4.825,4.825,0,0,0-1.5,1.16v5.754A3.987,3.987,0,0,0,81.1-1.055a1.008,1.008,0,0,0,.434.475A2.794,2.794,0,0,0,82.7-.422V0H77.392V-.422A2.364,2.364,0,0,0,78.423-.58a1.013,1.013,0,0,0,.445-.5,3.868,3.868,0,0,0,.152-1.342v-4.1a14.867,14.867,0,0,0-.105-2.285.932.932,0,0,0-.258-.533.728.728,0,0,0-.48-.146,2.252,2.252,0,0,0-.785.176l-.176-.422,3.234-1.312h.5Zm18.428,0q1.172-1.172,1.383-1.348A4.185,4.185,0,0,1,101.9-10.8a3.205,3.205,0,0,1,1.207-.246,2.677,2.677,0,0,1,1.734.586,2.9,2.9,0,0,1,.973,1.7,7.962,7.962,0,0,1,2.039-1.846,3.621,3.621,0,0,1,1.711-.439,2.681,2.681,0,0,1,1.518.439,2.921,2.921,0,0,1,1.049,1.436,6.468,6.468,0,0,1,.258,2.133v4.617a4.2,4.2,0,0,0,.152,1.383,1,1,0,0,0,.434.439,2.178,2.178,0,0,0,1.031.182V0h-5.3V-.422h.223a1.864,1.864,0,0,0,1.078-.27,1.044,1.044,0,0,0,.387-.6,7.513,7.513,0,0,0,.047-1.137V-7.043a3.907,3.907,0,0,0-.316-1.852,1.586,1.586,0,0,0-1.465-.75,2.792,2.792,0,0,0-1.248.311A6.766,6.766,0,0,0,105.9-8.18l-.023.129.023.5v5.121a4.417,4.417,0,0,0,.123,1.371,1,1,0,0,0,.463.451,2.653,2.653,0,0,0,1.16.182V0h-5.426V-.422a2.486,2.486,0,0,0,1.225-.211,1.1,1.1,0,0,0,.463-.633,6.234,6.234,0,0,0,.059-1.16V-7.043a3.489,3.489,0,0,0-.387-1.887,1.651,1.651,0,0,0-1.441-.75,2.588,2.588,0,0,0-1.254.34,4.825,4.825,0,0,0-1.5,1.16v5.754a3.987,3.987,0,0,0,.146,1.371,1.008,1.008,0,0,0,.434.475,2.794,2.794,0,0,0,1.166.158V0H95.82V-.422A2.364,2.364,0,0,0,96.851-.58a1.013,1.013,0,0,0,.445-.5,3.868,3.868,0,0,0,.152-1.342v-4.1a14.867,14.867,0,0,0-.105-2.285.932.932,0,0,0-.258-.533.728.728,0,0,0-.48-.146,2.252,2.252,0,0,0-.785.176l-.176-.422,3.234-1.312h.5Zm20.49-2.285A4.757,4.757,0,0,1,123.787-9.2a5.686,5.686,0,0,1,1.254,3.633,6.841,6.841,0,0,1-.691,2.918,5.044,5.044,0,0,1-1.9,2.227,5.033,5.033,0,0,1-2.7.75,4.549,4.549,0,0,1-3.855-1.934,5.991,5.991,0,0,1-1.207-3.656,6.487,6.487,0,0,1,.732-2.936,5,5,0,0,1,1.928-2.156A4.946,4.946,0,0,1,119.873-11.051Zm-.363.762a2.444,2.444,0,0,0-1.248.369,2.588,2.588,0,0,0-1.014,1.295,6.231,6.231,0,0,0-.387,2.379,8.288,8.288,0,0,0,.932,4.043,2.773,2.773,0,0,0,2.455,1.7,2.288,2.288,0,0,0,1.875-.937,5.329,5.329,0,0,0,.738-3.223,7.346,7.346,0,0,0-1.23-4.5A2.536,2.536,0,0,0,119.51-10.289Zm14.455,9.082A5.421,5.421,0,0,1,132.43-.029a3.711,3.711,0,0,1-1.617.357,4,4,0,0,1-3.07-1.471,5.463,5.463,0,0,1-1.312-3.779,6.832,6.832,0,0,1,1.453-4.225,4.492,4.492,0,0,1,3.738-1.916,3.22,3.22,0,0,1,2.344.9v-1.98a16.2,16.2,0,0,0-.088-2.262.985.985,0,0,0-.275-.574.719.719,0,0,0-.469-.152,2.47,2.47,0,0,0-.809.188l-.152-.41,3.2-1.312h.527v12.41a16.6,16.6,0,0,0,.088,2.3,1.021,1.021,0,0,0,.281.58.676.676,0,0,0,.451.164,2.549,2.549,0,0,0,.844-.2l.129.41L134.5.328h-.539Zm0-.82V-7.559a3.739,3.739,0,0,0-.422-1.453,2.433,2.433,0,0,0-.932-.99,2.261,2.261,0,0,0-1.131-.334,2.4,2.4,0,0,0-1.84.926,5.26,5.26,0,0,0-1.066,3.563,5.6,5.6,0,0,0,1.031,3.627,2.956,2.956,0,0,0,2.3,1.26A2.853,2.853,0,0,0,133.965-2.027Zm6.908-14.637a1.141,1.141,0,0,1,.838.346,1.141,1.141,0,0,1,.346.838,1.161,1.161,0,0,1-.346.844,1.132,1.132,0,0,1-.838.352,1.151,1.151,0,0,1-.844-.352,1.151,1.151,0,0,1-.352-.844,1.141,1.141,0,0,1,.346-.838A1.155,1.155,0,0,1,140.873-16.664Zm.973,5.613v8.625a3.951,3.951,0,0,0,.146,1.342,1.028,1.028,0,0,0,.434.5,2.321,2.321,0,0,0,1.049.164V0H138.26V-.422a2.427,2.427,0,0,0,1.055-.152,1.045,1.045,0,0,0,.428-.5,3.788,3.788,0,0,0,.158-1.348V-6.562a14.629,14.629,0,0,0-.105-2.262.919.919,0,0,0-.258-.521.728.728,0,0,0-.48-.146,2.346,2.346,0,0,0-.8.176l-.164-.422,3.234-1.312Zm5.842-3.211v3.527H150.2v.82h-2.508v6.961a2.338,2.338,0,0,0,.3,1.406.949.949,0,0,0,.768.363,1.343,1.343,0,0,0,.75-.24,1.545,1.545,0,0,0,.563-.709h.457A3.677,3.677,0,0,1,149.364-.4a2.5,2.5,0,0,1-1.547.58,2.08,2.08,0,0,1-1.055-.3A1.807,1.807,0,0,1,146-.979a4.491,4.491,0,0,1-.246-1.717V-9.914h-1.7V-10.3a4.45,4.45,0,0,0,1.318-.873,6.941,6.941,0,0,0,1.2-1.459,13.125,13.125,0,0,0,.75-1.629Zm6.041-2.4a1.141,1.141,0,0,1,.838.346,1.141,1.141,0,0,1,.346.838,1.161,1.161,0,0,1-.346.844,1.132,1.132,0,0,1-.838.352,1.151,1.151,0,0,1-.844-.352,1.151,1.151,0,0,1-.352-.844,1.141,1.141,0,0,1,.346-.838A1.155,1.155,0,0,1,153.729-16.664Zm.973,5.613v8.625a3.951,3.951,0,0,0,.146,1.342,1.028,1.028,0,0,0,.434.5,2.321,2.321,0,0,0,1.049.164V0h-5.215V-.422a2.427,2.427,0,0,0,1.055-.152,1.045,1.045,0,0,0,.428-.5,3.788,3.788,0,0,0,.158-1.348V-6.562a14.629,14.629,0,0,0-.105-2.262.919.919,0,0,0-.258-.521.728.728,0,0,0-.48-.146,2.346,2.346,0,0,0-.8.176l-.164-.422,3.234-1.312Zm4.53,4.359a5.513,5.513,0,0,0,1.16,3.75,3.538,3.538,0,0,0,2.754,1.359,2.986,2.986,0,0,0,1.834-.58,4.281,4.281,0,0,0,1.307-1.986l.363.234A5.588,5.588,0,0,1,165.22-.99,3.818,3.818,0,0,1,162.255.328a4.33,4.33,0,0,1-3.311-1.506,5.768,5.768,0,0,1-1.377-4.049,6.122,6.122,0,0,1,1.412-4.295,4.605,4.605,0,0,1,3.545-1.541,3.963,3.963,0,0,1,2.965,1.189,4.361,4.361,0,0,1,1.16,3.182Zm0-.68H164.2a4.593,4.593,0,0,0-.246-1.453,2.327,2.327,0,0,0-.873-1.031,2.2,2.2,0,0,0-1.213-.375,2.417,2.417,0,0,0-1.74.756A3.28,3.28,0,0,0,159.232-7.371Zm15.545-3.68v3.656h-.387a4.751,4.751,0,0,0-1.143-2.344,2.569,2.569,0,0,0-1.775-.621,1.959,1.959,0,0,0-1.324.434,1.258,1.258,0,0,0-.5.961,1.745,1.745,0,0,0,.375,1.125A4.17,4.17,0,0,0,171.5-6.82l1.711.832q2.379,1.16,2.379,3.059a2.889,2.889,0,0,1-1.107,2.361,3.84,3.84,0,0,1-2.479.9,8.525,8.525,0,0,1-2.25-.352,2.287,2.287,0,0,0-.633-.117.466.466,0,0,0-.422.3h-.387V-3.668h.387A4.362,4.362,0,0,0,169.949-1.2a3.026,3.026,0,0,0,2.074.832,1.858,1.858,0,0,0,1.318-.475,1.506,1.506,0,0,0,.51-1.143,1.818,1.818,0,0,0-.568-1.359,9.927,9.927,0,0,0-2.268-1.395,6.719,6.719,0,0,1-2.227-1.523,2.64,2.64,0,0,1-.527-1.687,2.977,2.977,0,0,1,.908-2.215,3.214,3.214,0,0,1,2.35-.891,5.522,5.522,0,0,1,1.535.27,3.626,3.626,0,0,0,.8.176.467.467,0,0,0,.293-.082,1.125,1.125,0,0,0,.246-.363Z" transform="translate(292.777 100.252)" fill="#fff"/><g transform="translate(468.399 83.579)"><g transform="translate(0 0)"><path d="M3.291-4.063A3.4,3.4,0,0,1,4.812-3.7,2.75,2.75,0,0,1,5.969-2.651,2.688,2.688,0,0,1,6.385-1.23,2.682,2.682,0,0,1,5.975.181,2.778,2.778,0,0,1,4.829,1.23,3.356,3.356,0,0,1,3.291,1.6,3.343,3.343,0,0,1,1.755,1.23,2.781,2.781,0,0,1,.612.181,2.682,2.682,0,0,1,.2-1.23,2.688,2.688,0,0,1,.618-2.651,2.75,2.75,0,0,1,1.775-3.7,3.389,3.389,0,0,1,3.291-4.063Zm0,.244a3.079,3.079,0,0,0-1.386.336,2.52,2.52,0,0,0-1.054.957,2.455,2.455,0,0,0-.379,1.3A2.449,2.449,0,0,0,.845.057a2.548,2.548,0,0,0,1.044.959,3.038,3.038,0,0,0,1.4.344A3.051,3.051,0,0,0,4.7,1.016,2.545,2.545,0,0,0,5.742.057,2.449,2.449,0,0,0,6.115-1.23a2.455,2.455,0,0,0-.379-1.3,2.52,2.52,0,0,0-1.054-.957A3.088,3.088,0,0,0,3.291-3.82Zm-1.708.847H3.265a1.526,1.526,0,0,1,.963.262.784.784,0,0,1,.331.633.741.741,0,0,1-.224.534,1.526,1.526,0,0,1-.743.354L4.5,0a1.228,1.228,0,0,0,.3.292.555.555,0,0,0,.231.06V.485h-.8L2.947-1.134H2.616V.1A.274.274,0,0,0,2.74.293a.843.843,0,0,0,.39.06V.485h-1.6V.353a.684.684,0,0,0,.3-.046A.274.274,0,0,0,1.954.173,1.246,1.246,0,0,0,1.984-.2v-2.09a2.4,2.4,0,0,0-.013-.348.257.257,0,0,0-.111-.142.557.557,0,0,0-.277-.05ZM2.616-1.306A2.244,2.244,0,0,0,3.368-1.4a.811.811,0,0,0,.364-.258.607.607,0,0,0,.126-.378.7.7,0,0,0-.246-.544.91.91,0,0,0-.63-.22,1.214,1.214,0,0,0-.366.064Z" transform="translate(-0.202 4.063)" fill="#fff"/></g></g></g></g></svg>