<svg xmlns="http://www.w3.org/2000/svg" xmlns:xlink="http://www.w3.org/1999/xlink" width="415" height="77" viewBox="0 0 415 77"><defs><clipPath id="b"><rect width="415" height="77"/></clipPath></defs><g id="a" clip-path="url(#b)"><g transform="translate(-66.286 -35.796)"><g transform="translate(71.286 40.796)"><path d="M112.23,64.063h-1.652v-.5c0-7.19-1.3-11.883-4.366-15.578-2.832-3.394-7.434-5.292-12.508-5.292-4.719,0-5.428.6-5.428,4.094V71.85h1.536c5.544,0,7.9-1.1,9.674-4.493,1.18-2.4,1.653-5.192,1.888-10.185h1.652V87.726h-1.652c-.235-5.592-.943-8.487-2.478-10.984-1.887-2.9-3.54-3.595-9.2-3.595H88.276V102.1c0,3.9.473,4.295,5.193,4.295H98.9v1.4H71.286v-1.4h3.893c4.72,0,5.193-.4,5.193-4.295V46.886c0-3.893-.473-4.292-5.193-4.292H71.286V41.2H112.23Z" transform="translate(-71.286 -40.796)" fill="#fff"/><path d="M130.744,64.3v2.8c-.118,1.5-.118,2.4-.118,2.9v.9c1.652-5.1,4.484-7.9,8.023-7.9,3.9,0,7.2,4,7.2,8.8,0,3.6-2.006,6.4-4.719,6.4a3.946,3.946,0,0,1-4.012-4.1c0-2.4,1.533-4.1,3.658-4.1a3.423,3.423,0,0,1,2.95,1.4,3.555,3.555,0,0,0,.117-1c0-3-2.6-5.9-5.192-5.9-4.955,0-7.787,7.4-7.787,19.5v18.2c0,3.9.472,4.3,5.075,4.3h3.184v1.4H116.467v-1.4h2.477c4.6,0,5.192-.4,5.192-4.3V73c0-6.5-1.062-7.5-7.2-7.5h-.472V64.1h.708c2.006,0,5.9-.1,8.377-.2,2.242-.1,3.3-.2,5.31-.4Z" transform="translate(-71.286 -40.896)" fill="#fff"/><path d="M155.86,80.6a57.822,57.822,0,0,0-.353,6.6c0,13.1,3.067,19.9,8.849,19.9,5.664,0,10.03-6.3,10.03-14.8a8.273,8.273,0,0,0-.118-1.6h1.77a12.14,12.14,0,0,1,.117,1.9c0,9.3-5.191,16.2-12.388,16.2-8.378,0-15.93-10.6-15.93-22.3,0-11.9,7.67-23.3,15.81-23.3,6.491,0,12.508,7.7,12.508,16.1a6.156,6.156,0,0,1-.117,1.3Zm13.452-3.5c0-7.8-2.243-12.6-6.018-12.6-4.012,0-6.371,4.7-7.315,14.7h13.215A16.719,16.719,0,0,0,169.312,77.1Z" transform="translate(-71.286 -40.896)" fill="#fff"/><path d="M204.951,79.7h-1.534c-2.478-10.5-5.545-15-10.383-15a6.466,6.466,0,0,0-6.49,6.6c0,3.5,1.652,5.4,10.147,11.2,7.906,5.5,10.5,9.1,10.5,14.7a11.426,11.426,0,0,1-11.21,11.5c-4.365,0-7.9-2.7-9.912-7.3a21.447,21.447,0,0,0-1.415,3.5l-.708,2.4a3.068,3.068,0,0,0-.118.6h-1.769V88h1.769c2.241,12.5,6.489,19.1,12.036,19.1a7.334,7.334,0,0,0,7.2-7.4c0-4.2-2.006-6.8-9.794-12.1-8.614-6-10.738-8.6-10.738-13.6a10.333,10.333,0,0,1,19.352-5.4,10.278,10.278,0,0,0,.826-2.2l.59-1.7a3.058,3.058,0,0,0,.117-.6h1.534Z" transform="translate(-71.286 -40.896)" fill="#fff"/><path d="M225.133,63.563v3.693l-.118,3.595v.8a12.027,12.027,0,0,1,11.917-8.487c3.3,0,6.136,1.2,7.671,3.3,1.3,1.6,1.77,4.095,1.77,9.286V102.1c0,3.9.471,4.295,5.073,4.295h2.6v1.4H233.393v-1.4h1.061c4.721,0,5.193-.4,5.193-4.295V74.146c0-4.193-.237-5.492-1.18-6.79a4.48,4.48,0,0,0-4.013-1.8c-3.067,0-5.546,1.7-7.315,4.792-1.534,2.5-2.006,5.193-2.006,10.784V102.1c0,3.9.59,4.295,5.192,4.295h.826v1.4H210.856v-1.4h2.477c4.6,0,5.074-.4,5.074-4.295V50.083c0-6.391-.944-7.489-7.08-7.489h-.471V41.2h.944l4.012-.1h4.129c1.416-.1,2.714-.1,4.011-.2h1.181Z" transform="translate(-71.286 -40.796)" fill="#fff"/><path d="M319.292,64.063H317.64v-.5c0-7.19-1.3-11.883-4.366-15.578-2.832-3.394-7.434-5.292-12.507-5.292-4.72,0-5.428.6-5.428,4.094V71.85h1.534c5.546,0,7.905-1.1,9.676-4.493,1.18-2.4,1.651-5.192,1.887-10.185h1.652V87.726h-1.652c-.236-5.592-.944-8.487-2.477-10.984-1.889-2.9-3.54-3.595-9.205-3.595h-1.415V102.1c0,3.9.472,4.295,5.191,4.295h5.429v1.4H278.348v-1.4h3.893c4.72,0,5.193-.4,5.193-4.295V46.886c0-3.893-.473-4.292-5.193-4.292h-3.893V41.2h40.944Z" transform="translate(-71.286 -40.796)" fill="#fff"/><path d="M337.569,102.1c0,3.895.59,4.294,5.193,4.294h2.477v1.4H323.292v-1.4h2.478c4.6,0,5.075-.4,5.075-4.294V72.951c0-6.491-.946-7.489-7.08-7.489h-.473v-1.4H324c4.13,0,8.968-.2,12.39-.4h1.179Zm-4.13-51.221c-2.594,0-4.483-1.7-4.483-3.793,0-2.2,2.006-3.895,4.483-3.895s4.485,1.7,4.485,3.794C337.924,49.187,335.918,50.884,333.439,50.884Z" transform="translate(-71.286 -40.796)" fill="#fff"/><path d="M363.173,66.3v4.8a12.959,12.959,0,0,1,12.153-7.9c3.187,0,5.663,1,7.434,3.2,1.416,1.6,1.769,3.7,1.769,8.7v27.1c0,3.9.59,4.3,5.193,4.3H392.2v1.4h-20.53v-1.4h1.062c4.719,0,5.073-.4,5.073-4.3v-28c0-6.7-1.062-8.6-4.955-8.6a8.866,8.866,0,0,0-7.435,4.7c-1.415,2.5-1.888,5.2-1.888,10.9v21c0,3.9.473,4.3,5.075,4.3h.826v1.4h-20.3v-1.4h2.478c4.72,0,5.192-.4,5.192-4.3V73c0-6.4-1.062-7.5-7.316-7.5h-.471V64.1h.826c4.247,0,8.849-.1,12.153-.3h1.3A12.239,12.239,0,0,0,363.173,66.3Z" transform="translate(-71.286 -40.896)" fill="#fff"/><path d="M423.006,102.106c0,3.9.59,4.295,5.192,4.295h2.479v1.4h-14.4a2.929,2.929,0,0,0,.118-.9l.118-3.495.236-3.4V95.715c-1.416,7.69-5.664,13.081-10.384,13.081-3.657,0-6.843-2.5-9.556-7.589a33.8,33.8,0,0,1-3.777-15.377c0-11.483,6.608-22.766,13.333-22.766,4.248,0,7.906,3.893,9.912,10.683V50.083c0-6.392-.944-7.489-7.2-7.489h-.471V41.2h.944c6.253,0,9.911-.1,13.45-.4ZM412.977,70.054c-1.888-3.8-3.894-5.492-6.253-5.492-2.478,0-3.894,2-4.838,6.89a93.488,93.488,0,0,0-.944,14.579c0,6.09.471,12.482,1.3,15.776.945,3.894,2.243,5.593,4.485,5.492,2.6-.1,4.838-2.3,6.842-6.889a34.834,34.834,0,0,0,2.715-14.28C416.281,79.739,415.219,74.547,412.977,70.054Z" transform="translate(-71.286 -40.796)" fill="#fff"/><path d="M458.056,79.7h-1.535c-2.478-10.5-5.545-15-10.383-15a6.467,6.467,0,0,0-6.491,6.6c0,3.5,1.653,5.4,10.149,11.2,7.9,5.5,10.5,9.1,10.5,14.7a11.425,11.425,0,0,1-11.21,11.5c-4.365,0-7.9-2.7-9.91-7.3a21.269,21.269,0,0,0-1.416,3.5l-.709,2.4a3.091,3.091,0,0,0-.117.6h-1.771V88h1.771c2.242,12.5,6.489,19.1,12.035,19.1a7.334,7.334,0,0,0,7.2-7.4c0-4.2-2.006-6.8-9.793-12.1-8.613-6-10.737-8.6-10.737-13.6a10.332,10.332,0,0,1,19.35-5.4,10.277,10.277,0,0,0,.827-2.2l.589-1.7a3.036,3.036,0,0,0,.118-.6h1.535Z" transform="translate(-71.286 -40.896)" fill="#fff"/></g><path d="M6.46-7.64v-2.78h1.8a4.875,4.875,0,0,1,.69.05,1.931,1.931,0,0,1,.62.19,1.152,1.152,0,0,1,.44.4,1.265,1.265,0,0,1,.17.7,1.47,1.47,0,0,1-.19.81,1.146,1.146,0,0,1-.51.43,2.214,2.214,0,0,1-.73.17q-.41.03-.87.03ZM5.1-11.52v8.74H6.46V-6.54H7.9l2.38,3.76h1.46L9.24-6.64a2.965,2.965,0,0,0,1.64-.65,2.126,2.126,0,0,0,.66-1.73,2.3,2.3,0,0,0-.75-1.88,3.581,3.581,0,0,0-2.31-.62ZM1.84-7.18a6.594,6.594,0,0,1,.47-2.5,6.145,6.145,0,0,1,1.3-2.01,6.1,6.1,0,0,1,1.96-1.34,6.091,6.091,0,0,1,2.45-.49,5.971,5.971,0,0,1,2.42.49,6.13,6.13,0,0,1,1.95,1.34,6.145,6.145,0,0,1,1.3,2.01,6.594,6.594,0,0,1,.47,2.5,6.779,6.779,0,0,1-.47,2.55,6.235,6.235,0,0,1-1.3,2.03,6.052,6.052,0,0,1-1.95,1.35,5.971,5.971,0,0,1-2.42.49,6.091,6.091,0,0,1-2.45-.49A6.023,6.023,0,0,1,3.61-2.6a6.235,6.235,0,0,1-1.3-2.03A6.779,6.779,0,0,1,1.84-7.18Zm-1.36,0a7.371,7.371,0,0,0,.6,2.99A7.523,7.523,0,0,0,2.71-1.81,7.378,7.378,0,0,0,5.11-.24,7.616,7.616,0,0,0,8.02.32a7.541,7.541,0,0,0,2.9-.56A7.292,7.292,0,0,0,13.3-1.81a7.606,7.606,0,0,0,1.62-2.38,7.371,7.371,0,0,0,.6-2.99,7.2,7.2,0,0,0-.6-2.94,7.517,7.517,0,0,0-1.62-2.36,7.51,7.51,0,0,0-2.38-1.57,7.426,7.426,0,0,0-2.9-.57,7.5,7.5,0,0,0-2.91.57,7.6,7.6,0,0,0-2.4,1.57,7.435,7.435,0,0,0-1.63,2.36A7.2,7.2,0,0,0,.48-7.18Z" transform="translate(460.286 63.796)" fill="#fff"/></g></g></svg>