<svg class="svg-lgo" viewBox="112 -3 27 27" xmlns="http://www.w3.org/2000/svg" width="183" height="20">
<g fill="#FFF"><path d="M46.029 6.975h-.466v-.141c0-2.027-.366-3.35-1.23-4.392-.799-.957-2.096-1.491-3.526-1.491-1.33 0-1.529.169-1.529 1.153v7.064h.433c1.563 0 2.227-.31 2.727-1.267.333-.676.466-1.463.532-2.87h.466v8.611h-.466c-.066-1.575-.266-2.391-.699-3.096-.531-.816-.998-1.014-2.593-1.014h-.4v8.163c0 1.097.134 1.209 1.463 1.209h1.531v.396h-7.784v-.396h1.097c1.331 0 1.464-.112 1.464-1.209V2.133c0-1.097-.133-1.21-1.464-1.21h-1.097V.53h11.541v6.445zM51.248 7.013v.79c-.034.423-.034.676-.034.817v.254c.465-1.438 1.264-2.228 2.261-2.228 1.099 0 2.029 1.128 2.029 2.48 0 1.016-.565 1.804-1.33 1.804a1.11 1.11 0 01-1.131-1.092v-.063c0-.678.432-1.156 1.031-1.156a.962.962 0 01.831.395.963.963 0 00.033-.282c0-.846-.732-1.663-1.463-1.663-1.396 0-2.195 2.086-2.195 5.497v5.131c0 1.097.133 1.211 1.431 1.211h.897v.394h-6.386v-.394h.698c1.296 0 1.464-.114 1.464-1.211V9.466c0-1.833-.3-2.114-2.029-2.114h-.133v-.396h.199c.565 0 1.664-.027 2.362-.056.631-.027.93-.056 1.496-.113l-.031.226zM58.328 11.609a15.988 15.988 0 00-.1 1.857c0 3.694.864 5.61 2.494 5.61 1.597 0 2.828-1.775 2.828-4.172a2.263 2.263 0 00-.033-.45h.499c.024.178.036.356.033.535 0 2.622-1.463 4.567-3.491 4.567-2.362 0-4.491-2.988-4.491-6.286 0-3.354 2.163-6.568 4.457-6.568 1.83 0 3.526 2.171 3.526 4.537.002.125-.009.248-.033.369h-5.689zm3.791-.989c0-2.198-.632-3.551-1.696-3.551-1.131 0-1.795 1.325-2.062 4.145h3.726c.023-.198.033-.396.032-.594zM72.165 11.353h-.432c-.698-2.958-1.563-4.227-2.927-4.227a1.823 1.823 0 00-1.83 1.815v.045c0 .986.466 1.522 2.86 3.157 2.229 1.551 2.959 2.563 2.959 4.144a3.218 3.218 0 01-3.16 3.241c-1.23 0-2.227-.761-2.794-2.058a5.964 5.964 0 00-.398.986l-.2.677a.91.91 0 00-.034.168h-.498v-5.607h.498c.632 3.522 1.83 5.383 3.393 5.383a2.066 2.066 0 002.029-2.085c0-1.184-.565-1.919-2.76-3.41-2.428-1.692-3.027-2.427-3.027-3.835a2.913 2.913 0 015.455-1.522c.101-.197.18-.405.233-.62l.166-.479a.881.881 0 00.033-.17h.432v4.397zM77.854 6.834v1.041l-.034 1.013v.226a3.389 3.389 0 013.358-2.392c.93 0 1.729.337 2.162.93.367.45.5 1.154.5 2.617v7.429c0 1.097.133 1.209 1.43 1.209h.733v.396h-5.821v-.396h.299c1.331 0 1.464-.112 1.464-1.209V9.816c0-1.182-.068-1.548-.333-1.914a1.263 1.263 0 00-1.131-.507c-.865 0-1.563.479-2.063 1.351-.432.704-.565 1.464-.565 3.04v5.911c0 1.097.166 1.209 1.463 1.209h.233v.396h-5.721v-.396h.698c1.297 0 1.431-.112 1.431-1.209V3.033c0-1.801-.267-2.11-1.996-2.11h-.133V.53h.267l1.13-.028h1.164c.399-.028.765-.028 1.131-.057h.333v6.389zM104.395 6.975h-.466v-.141c0-2.027-.366-3.35-1.23-4.392-.798-.957-2.096-1.491-3.526-1.491-1.329 0-1.529.169-1.529 1.153v7.064h.433c1.563 0 2.228-.31 2.728-1.267.333-.676.465-1.463.531-2.87h.467v8.611h-.467c-.066-1.575-.267-2.391-.698-3.096-.531-.816-.997-1.014-2.594-1.014h-.399v8.163c0 1.097.134 1.209 1.464 1.209h1.529v.396h-7.782v-.396h1.098c1.33 0 1.463-.112 1.463-1.209V2.133c0-1.097-.133-1.21-1.463-1.21h-1.098V.53h11.541v6.445zM109.546 17.697c0 1.097.167 1.209 1.464 1.209h.698v.396h-6.187v-.396h.699c1.296 0 1.43-.112 1.43-1.209V9.479c0-1.83-.266-2.111-1.995-2.111h-.134v-.394h.199c1.165 0 2.529-.056 3.493-.112h.332v10.835zm-1.164-14.439c-.731 0-1.264-.479-1.264-1.068 0-.621.565-1.098 1.264-1.098s1.265.479 1.265 1.068c0 .621-.565 1.1-1.265 1.1v-.002zM116.763 7.576V8.93a3.656 3.656 0 013.427-2.227c.897 0 1.595.281 2.095.902.398.45.5 1.043.5 2.451v7.641c0 1.097.165 1.211 1.463 1.211h.697v.394h-5.786v-.394h.3c1.33 0 1.429-.114 1.429-1.211V9.804c0-1.889-.298-2.425-1.396-2.425a2.5 2.5 0 00-2.096 1.325c-.398.706-.533 1.467-.533 3.073v5.92c0 1.097.135 1.211 1.432 1.211h.232v.394h-5.722v-.394h.697c1.331 0 1.464-.114 1.464-1.211V9.466c0-1.805-.299-2.114-2.062-2.114h-.134v-.396h.233c1.196 0 2.495-.027 3.426-.083h.366a3.518 3.518 0 00-.032.703zM133.629 17.697c0 1.102.166 1.211 1.463 1.211h.698v.394h-4.059a.832.832 0 00.033-.254l.033-.984.066-.957v-1.209c-.399 2.166-1.596 3.686-2.927 3.686-1.03 0-1.929-.703-2.693-2.14a9.52 9.52 0 01-1.064-4.332c0-3.237 1.862-6.418 3.758-6.418 1.198 0 2.229 1.097 2.794 3.011V3.034c0-1.801-.267-2.11-2.028-2.11h-.133V.53h.265c1.764 0 2.794-.028 3.791-.113l.003 17.28zm-2.827-9.034c-.532-1.071-1.098-1.548-1.763-1.548-.699 0-1.098.563-1.364 1.941a26.658 26.658 0 00-.266 4.111c0 1.716.133 3.517.366 4.446.267 1.097.633 1.575 1.266 1.546.731-.026 1.362-.646 1.928-1.941a9.814 9.814 0 00.765-4.024c-.002-1.799-.301-3.263-.932-4.531zM143.507 11.353h-.432c-.698-2.958-1.563-4.227-2.927-4.227a1.823 1.823 0 00-1.83 1.815v.045c0 .986.468 1.522 2.861 3.157 2.228 1.551 2.959 2.563 2.959 4.144a3.217 3.217 0 01-3.158 3.241c-1.23 0-2.227-.761-2.794-2.058a5.878 5.878 0 00-.398.986l-.201.677a.907.907 0 00-.033.168h-.498v-5.607h.498c.633 3.522 1.829 5.383 3.393 5.383a2.067 2.067 0 002.03-2.085c0-1.184-.566-1.919-2.762-3.41-2.427-1.692-3.025-2.427-3.025-3.835a2.914 2.914 0 015.454-1.522c.103-.197.179-.405.233-.62l.165-.479a.752.752 0 00.033-.17h.435l-.003 4.397zM145.957 4.745v-.782h.507c.065 0 .132.004.196.014.06.007.119.025.175.054.05.026.092.064.122.112.035.06.054.128.049.197a.4.4 0 01-.054.229.313.313 0 01-.143.121.638.638 0 01-.206.048 3.21 3.21 0 01-.246.008h-.4zm-.384-1.093v2.463h.384v-1.06h.407l.67 1.06h.412l-.705-1.088a.843.843 0 00.463-.183.607.607 0 00.186-.488.648.648 0 00-.211-.529 1.006 1.006 0 00-.651-.175h-.955zm-.918 1.223c-.002-.241.042-.48.132-.704a1.716 1.716 0 011.61-1.082 1.67 1.67 0 01.682.138c.206.089.394.217.551.378.156.162.281.355.366.566.089.224.133.463.132.704.003.246-.043.49-.132.719a1.718 1.718 0 01-.917.953c-.216.093-.447.14-.682.139a1.711 1.711 0 01-1.61-1.092 1.902 1.902 0 01-.132-.719zm-.382 0c-.005.29.053.577.167.843.109.251.266.479.461.671a2.144 2.144 0 001.496.6 2.11 2.11 0 001.488-.6 2.123 2.123 0 00.456-2.342 2.098 2.098 0 00-1.944-1.268 2.14 2.14 0 00-1.496.603 2.033 2.033 0 00-.628 1.493z"/></g></svg>