<?xml version="1.0" encoding="utf-8"?>
<!-- Generator: Adobe Illustrator 16.0.0, SVG Export Plug-In . SVG Version: 6.00 Build 0)  -->
<!DOCTYPE svg PUBLIC "-//W3C//DTD SVG 1.1//EN" "http://www.w3.org/Graphics/SVG/1.1/DTD/svg11.dtd">
<svg version="1.1" id="Layer_2" xmlns="http://www.w3.org/2000/svg" xmlns:xlink="http://www.w3.org/1999/xlink" x="0px" y="0px"
	 width="183px" height="20px" viewBox="0 0 183 20" enable-background="new 0 0 183 20" xml:space="preserve">
<path d="M36.176,9.653H32.81l-0.59,1.372c-0.116,0.236-0.189,0.49-0.215,0.752c0.004,0.14,0.074,0.27,0.189,0.35
	c0.251,0.135,0.533,0.201,0.818,0.195v0.242h-2.744v-0.237c0.253-0.021,0.496-0.106,0.706-0.249c0.316-0.369,0.563-0.793,0.725-1.25
	l3.064-7.157h0.225l3.021,7.233c0.144,0.42,0.369,0.806,0.665,1.135c0.236,0.188,0.528,0.29,0.83,0.292v0.233h-3.427v-0.237
	c0.246,0.011,0.489-0.05,0.702-0.173c0.114-0.084,0.183-0.217,0.183-0.359c-0.034-0.311-0.123-0.611-0.263-0.891L36.176,9.653z
	 M35.995,9.18l-1.475-3.516L33.008,9.18H35.995z M43.576,7.742l3.206,3.188c0.394,0.423,0.848,0.785,1.347,1.074
	c0.347,0.184,0.727,0.294,1.116,0.324v0.236h-4.136v-0.237c0.188,0.015,0.376-0.032,0.536-0.132
	c0.097-0.061,0.157-0.164,0.164-0.277c0.002-0.096-0.019-0.19-0.061-0.276c-0.114-0.168-0.249-0.321-0.4-0.456l-3.004-2.963v2.803
	c-0.018,0.293,0.011,0.588,0.083,0.873c0.055,0.119,0.15,0.217,0.269,0.275c0.178,0.101,0.379,0.154,0.583,0.153h0.296v0.237H39.87
	v-0.237h0.308c0.298,0.028,0.591-0.089,0.788-0.313c0.136-0.311,0.188-0.65,0.153-0.988V5.408c0.017-0.295-0.012-0.592-0.083-0.879
	c-0.056-0.116-0.147-0.21-0.263-0.269c-0.18-0.101-0.383-0.153-0.59-0.154H39.87V3.869h3.706v0.237h-0.295
	c-0.204,0.001-0.404,0.052-0.583,0.147c-0.128,0.063-0.227,0.173-0.276,0.308c-0.066,0.276-0.093,0.563-0.077,0.847v2.661
	l0.879-0.814c0.832-0.709,1.602-1.487,2.302-2.327c0.101-0.13,0.161-0.286,0.174-0.449c-0.001-0.104-0.049-0.2-0.132-0.263
	c-0.135-0.087-0.295-0.127-0.455-0.111h-0.198V3.866h3.194v0.238c-0.175,0.002-0.347,0.028-0.514,0.077
	c-0.199,0.068-0.389,0.16-0.565,0.273c-0.294,0.192-0.568,0.412-0.82,0.656c-0.094,0.088-0.527,0.525-1.302,1.313L43.576,7.742z
	 M51.882,4.343V7.78h1.911c0.347,0.038,0.697-0.04,0.994-0.225c0.256-0.284,0.39-0.657,0.371-1.039h0.238v3.021h-0.238
	c-0.025-0.277-0.086-0.551-0.18-0.814c-0.084-0.156-0.217-0.279-0.378-0.353c-0.257-0.101-0.532-0.146-0.808-0.132h-1.911v2.882
	c-0.015,0.235,0.003,0.472,0.051,0.703c0.036,0.085,0.1,0.154,0.18,0.198c0.155,0.061,0.321,0.086,0.487,0.073h1.472
	c0.359,0.015,0.72-0.021,1.07-0.103c0.243-0.081,0.463-0.22,0.641-0.404c0.329-0.357,0.604-0.762,0.814-1.199h0.263l-0.751,2.176
	h-6.699v-0.237h0.308c0.204,0.001,0.404-0.05,0.583-0.147c0.13-0.061,0.23-0.172,0.278-0.307c0.064-0.275,0.089-0.559,0.074-0.841
	V5.385c0.041-0.349-0.017-0.702-0.167-1.02c-0.207-0.193-0.487-0.289-0.77-0.263h-0.308V3.865h6.698l0.097,1.904h-0.25
	c-0.047-0.328-0.147-0.647-0.298-0.943c-0.117-0.178-0.286-0.316-0.485-0.394c-0.294-0.079-0.599-0.111-0.903-0.096L51.882,4.343z
	 M63.177,3.669v3.008h-0.237c-0.048-0.481-0.188-0.95-0.414-1.379c-0.202-0.345-0.496-0.627-0.85-0.814
	c-0.349-0.195-0.741-0.299-1.142-0.301c-0.407-0.014-0.803,0.133-1.104,0.407C59.158,4.822,59,5.16,58.995,5.518
	c0.001,0.267,0.099,0.524,0.275,0.725c0.558,0.527,1.196,0.961,1.892,1.283c0.579,0.293,1.135,0.629,1.664,1.004
	c0.287,0.221,0.521,0.502,0.686,0.823c0.158,0.308,0.241,0.648,0.24,0.994c0.005,0.653-0.274,1.276-0.766,1.708
	c-0.538,0.486-1.245,0.742-1.97,0.714c-0.238,0.001-0.477-0.019-0.712-0.058c-0.279-0.062-0.554-0.14-0.823-0.234
	c-0.255-0.096-0.52-0.164-0.788-0.201c-0.095-0.006-0.187,0.029-0.254,0.096c-0.079,0.116-0.125,0.253-0.132,0.394h-0.244V9.781
	h0.238c0.066,0.49,0.218,0.965,0.449,1.402c0.212,0.331,0.51,0.598,0.862,0.771c0.393,0.207,0.83,0.313,1.273,0.309
	c0.46,0.025,0.913-0.127,1.266-0.424c0.295-0.249,0.465-0.615,0.465-1c-0.003-0.228-0.063-0.45-0.176-0.648
	c-0.137-0.24-0.323-0.447-0.548-0.609c-0.441-0.295-0.896-0.568-1.366-0.818c-0.552-0.294-1.081-0.627-1.586-0.996
	c-0.292-0.223-0.535-0.502-0.715-0.821c-0.164-0.304-0.248-0.644-0.244-0.987c-0.004-0.616,0.258-1.204,0.719-1.613
	c0.496-0.458,1.153-0.701,1.828-0.676c0.508,0.01,1.008,0.126,1.468,0.34c0.158,0.083,0.33,0.137,0.508,0.16
	c0.101,0.004,0.198-0.032,0.272-0.1c0.094-0.115,0.152-0.254,0.17-0.4L63.177,3.669z M68.519,12.327v0.237h-3.728v-0.237h0.313
	c0.298,0.028,0.592-0.089,0.788-0.313c0.137-0.311,0.189-0.65,0.154-0.988V5.408c0.017-0.293-0.012-0.587-0.083-0.872
	C65.909,4.417,65.816,4.32,65.7,4.261c-0.183-0.102-0.388-0.154-0.597-0.154h-0.307V3.869h3.722v0.237h-0.315
	c-0.294-0.025-0.583,0.091-0.776,0.314c-0.141,0.309-0.196,0.649-0.16,0.987v5.617c-0.017,0.293,0.011,0.588,0.083,0.873
	c0.056,0.119,0.15,0.217,0.27,0.275c0.178,0.101,0.379,0.154,0.583,0.153H68.519z M69.063,12.564v-0.237h0.327
	c0.307,0.032,0.607-0.103,0.788-0.353c0.123-0.301,0.171-0.627,0.141-0.95V5.408c0.041-0.35-0.021-0.704-0.181-1.019
	c-0.193-0.2-0.466-0.303-0.743-0.283h-0.327V3.869h3.547c1.008-0.048,2.016,0.103,2.966,0.442c0.688,0.305,1.261,0.821,1.635,1.476
	c0.422,0.723,0.636,1.548,0.619,2.385c0.034,1.115-0.36,2.201-1.104,3.033c-1.005,0.979-2.384,1.475-3.781,1.359H69.063z
	 M71.54,11.936c0.447,0.108,0.905,0.168,1.365,0.18c0.937,0.023,1.837-0.359,2.47-1.051c0.687-0.779,1.04-1.797,0.986-2.834
	c0.058-1.039-0.295-2.059-0.981-2.841c-0.654-0.691-1.575-1.068-2.526-1.033c-0.444,0.009-0.886,0.071-1.313,0.187V11.936z
	 M81.068,4.343V7.78h1.911c0.348,0.038,0.697-0.04,0.994-0.225c0.255-0.282,0.389-0.653,0.372-1.032h0.237v3.021h-0.237
	c-0.025-0.278-0.086-0.552-0.18-0.813c-0.084-0.156-0.217-0.281-0.379-0.354c-0.257-0.102-0.532-0.146-0.808-0.132h-1.911v2.875
	c-0.014,0.235,0.003,0.472,0.052,0.703c0.035,0.085,0.099,0.154,0.18,0.198c0.154,0.061,0.321,0.086,0.487,0.073h1.475
	c0.36,0.015,0.72-0.021,1.07-0.103c0.243-0.081,0.463-0.22,0.642-0.404c0.329-0.357,0.604-0.762,0.814-1.199h0.263l-0.756,2.176
	h-6.698v-0.237h0.298c0.204,0.001,0.404-0.05,0.583-0.147c0.131-0.061,0.23-0.172,0.279-0.307c0.063-0.275,0.088-0.559,0.073-0.841
	V5.385c0.041-0.349-0.017-0.702-0.167-1.02c-0.207-0.193-0.487-0.289-0.77-0.263h-0.301V3.865h6.698l0.096,1.904h-0.249
	c-0.047-0.328-0.147-0.647-0.298-0.943c-0.117-0.178-0.286-0.316-0.485-0.394c-0.294-0.079-0.599-0.111-0.903-0.096L81.068,4.343z
	 M12.086,6.204l0.049,1.019h-0.123c-0.011-0.132-0.043-0.262-0.096-0.385c-0.058-0.115-0.149-0.211-0.263-0.273
	c-0.137-0.063-0.287-0.092-0.438-0.083h-0.611v3.317c-0.021,0.172,0.01,0.346,0.086,0.5c0.101,0.097,0.238,0.145,0.376,0.132h0.151
	v0.122H9.373v-0.118h0.154c0.151,0.017,0.3-0.047,0.394-0.167c0.063-0.147,0.088-0.309,0.072-0.469V6.481H9.468
	C9.322,6.475,9.176,6.489,9.034,6.525C8.917,6.572,8.817,6.653,8.75,6.76C8.663,6.9,8.614,7.063,8.609,7.228H8.484l0.051-1.023
	H12.086z M13.647,8.222h2.02V6.978c0.009-0.147-0.005-0.296-0.042-0.438c-0.027-0.057-0.074-0.104-0.131-0.131
	c-0.089-0.051-0.189-0.078-0.292-0.078h-0.157V6.212h1.861V6.33h-0.155c-0.102,0-0.202,0.025-0.291,0.074
	c-0.065,0.03-0.116,0.086-0.14,0.154c-0.032,0.139-0.044,0.282-0.037,0.424v2.801c-0.008,0.146,0.006,0.294,0.042,0.436
	c0.028,0.058,0.074,0.104,0.132,0.132c0.09,0.051,0.191,0.077,0.295,0.077h0.154v0.125h-1.861v-0.118h0.153
	c0.149,0.015,0.297-0.044,0.395-0.157c0.068-0.155,0.095-0.326,0.074-0.494V8.459h-2.02v1.324c-0.008,0.146,0.006,0.294,0.042,0.436
	c0.028,0.058,0.074,0.104,0.131,0.132c0.089,0.051,0.189,0.077,0.292,0.077h0.157v0.125H12.41v-0.118h0.153
	c0.149,0.015,0.296-0.044,0.395-0.157c0.068-0.155,0.095-0.326,0.077-0.494V6.978c0.009-0.147-0.006-0.296-0.042-0.438
	c-0.028-0.057-0.074-0.104-0.131-0.131C12.771,6.357,12.67,6.33,12.566,6.33H12.41V6.212h1.862V6.33h-0.157
	c-0.102,0-0.202,0.025-0.292,0.074c-0.062,0.033-0.108,0.088-0.131,0.154c-0.033,0.139-0.046,0.281-0.038,0.424L13.647,8.222z
	 M18.412,6.441v1.72h0.957c0.173,0.02,0.348-0.021,0.496-0.112c0.13-0.143,0.197-0.332,0.187-0.525h0.118v1.52h-0.118
	c-0.013-0.14-0.043-0.276-0.089-0.408c-0.042-0.077-0.109-0.139-0.189-0.176c-0.129-0.05-0.267-0.072-0.404-0.064h-0.957v1.434
	c-0.006,0.117,0.003,0.235,0.026,0.351c0.019,0.043,0.051,0.078,0.093,0.1c0.077,0.03,0.16,0.044,0.244,0.037h0.738
	c0.179,0.007,0.357-0.011,0.531-0.052c0.123-0.04,0.234-0.109,0.324-0.202c0.165-0.179,0.302-0.381,0.407-0.601h0.132l-0.383,1.092
	h-3.35v-0.118h0.153c0.102,0.001,0.202-0.024,0.291-0.073c0.065-0.031,0.115-0.086,0.14-0.154c0.032-0.137,0.044-0.279,0.037-0.42
	V6.962c0.021-0.175-0.008-0.351-0.083-0.51C17.61,6.355,17.47,6.308,17.329,6.32h-0.153V6.203h3.35l0.049,0.952h-0.131
	c-0.023-0.165-0.074-0.323-0.15-0.472c-0.058-0.089-0.143-0.157-0.241-0.195c-0.147-0.04-0.3-0.057-0.452-0.049L18.412,6.441z"/>
<path d="M100.387,0l0.301,5.867h-0.301c-0.227-1.391-0.816-2.699-1.707-3.792c-0.682-0.748-1.648-1.17-2.66-1.159
	c-0.865-0.002-1.701,0.308-2.355,0.873c-0.805,0.75-1.377,1.715-1.652,2.78c-0.438,1.543-0.641,3.144-0.603,4.747
	c-0.027,1.376,0.165,2.746,0.568,4.062c0.3,1.026,0.894,1.942,1.708,2.635c0.734,0.603,1.658,0.929,2.607,0.919
	c0.809,0.014,1.598-0.239,2.246-0.719c0.898-0.8,1.627-1.771,2.141-2.858l0.301,0.255c-0.486,1.291-1.273,2.449-2.295,3.375
	c-0.879,0.715-1.982,1.094-3.115,1.069c-2.153,0.01-4.117-1.231-5.032-3.183c-0.92-1.711-1.378-3.634-1.33-5.576
	c-0.019-1.625,0.279-3.237,0.877-4.748c0.491-1.313,1.324-2.472,2.414-3.354c0.952-0.768,2.138-1.188,3.36-1.19
	c1.002,0.02,1.977,0.34,2.795,0.92c0.168,0.141,0.367,0.236,0.58,0.279c0.182-0.003,0.35-0.093,0.453-0.241
	c0.189-0.287,0.313-0.614,0.357-0.955L100.387,0z M105.828,4.063c1.117-0.006,2.184,0.461,2.936,1.286
	c0.828,0.859,1.275,2.016,1.24,3.208c0.037,1.218-0.412,2.399-1.25,3.284c-0.773,0.848-1.873,1.325-3.021,1.313
	c-1.143,0.025-2.242-0.439-3.02-1.276c-0.832-0.894-1.271-2.083-1.223-3.304c-0.043-1.275,0.471-2.508,1.408-3.376
	C103.689,4.452,104.742,4.044,105.828,4.063z M105.707,4.531c-0.727-0.024-1.422,0.297-1.873,0.865
	c-0.646,0.919-0.957,2.031-0.879,3.152c-0.076,1.166,0.244,2.323,0.91,3.283c0.443,0.566,1.129,0.887,1.848,0.863
	c0.785,0.016,1.535-0.336,2.025-0.949c0.604-0.884,0.885-1.948,0.797-3.016c0.09-1.176-0.221-2.348-0.879-3.327
	C107.184,4.818,106.459,4.495,105.707,4.531z M118.039,10.553l0.213,0.045l-0.744,2.36h-6.734v-0.237h0.328
	c0.307,0.027,0.607-0.109,0.787-0.359c0.117-0.302,0.162-0.627,0.131-0.949V5.801c0.043-0.35-0.02-0.704-0.18-1.019
	c-0.193-0.199-0.465-0.303-0.742-0.282h-0.324V4.262h3.941V4.5c-0.33-0.024-0.66,0.021-0.973,0.131
	c-0.162,0.067-0.297,0.188-0.383,0.34c-0.092,0.318-0.125,0.651-0.102,0.981v5.464c-0.018,0.246,0.018,0.494,0.102,0.728
	c0.053,0.092,0.137,0.161,0.236,0.198c0.33,0.062,0.666,0.084,1.002,0.064h0.635c0.473,0.023,0.945-0.026,1.404-0.146
	c0.285-0.111,0.539-0.292,0.736-0.525C117.656,11.378,117.883,10.979,118.039,10.553z M126.063,10.553l0.211,0.045l-0.742,2.36
	h-6.734v-0.237h0.326c0.309,0.027,0.607-0.109,0.789-0.359c0.117-0.302,0.162-0.627,0.131-0.949V5.801
	c0.041-0.35-0.021-0.704-0.18-1.019c-0.193-0.199-0.467-0.303-0.744-0.282h-0.322V4.262h3.939V4.5
	c-0.33-0.024-0.66,0.021-0.971,0.131c-0.162,0.067-0.297,0.188-0.383,0.34c-0.092,0.318-0.127,0.651-0.104,0.981v5.464
	c-0.016,0.247,0.02,0.494,0.105,0.728c0.053,0.092,0.137,0.161,0.236,0.198c0.33,0.062,0.666,0.084,1.002,0.064h0.633
	c0.475,0.023,0.947-0.026,1.404-0.146c0.287-0.111,0.541-0.292,0.738-0.525c0.283-0.356,0.508-0.755,0.666-1.182H126.063z
	 M129.301,4.736v3.437h1.912c0.346,0.039,0.697-0.04,0.994-0.225c0.256-0.283,0.391-0.657,0.371-1.038h0.232v3.02h-0.238
	c-0.025-0.277-0.086-0.551-0.18-0.813c-0.084-0.157-0.217-0.28-0.377-0.354c-0.258-0.101-0.533-0.146-0.809-0.132h-1.906v2.883
	c-0.014,0.234,0.004,0.471,0.051,0.702c0.037,0.085,0.1,0.154,0.182,0.198c0.154,0.062,0.32,0.086,0.486,0.074h1.479
	c0.359,0.014,0.719-0.021,1.07-0.104c0.242-0.083,0.459-0.223,0.637-0.408c0.328-0.357,0.604-0.762,0.814-1.199h0.262l-0.754,2.181
	h-6.697v-0.237h0.307c0.203,0,0.404-0.051,0.584-0.148c0.129-0.061,0.229-0.172,0.277-0.307c0.064-0.275,0.088-0.559,0.074-0.841
	V5.777c0.041-0.349-0.018-0.702-0.168-1.02c-0.207-0.193-0.486-0.288-0.77-0.263h-0.307V4.258h6.699l0.096,1.904h-0.25
	c-0.047-0.328-0.148-0.647-0.299-0.942c-0.115-0.179-0.285-0.316-0.484-0.395c-0.295-0.079-0.6-0.111-0.904-0.096L129.301,4.736z
	 M142.486,4.063l0.199,2.956h-0.199c-0.176-0.738-0.572-1.405-1.139-1.911c-0.504-0.394-1.131-0.6-1.77-0.583
	c-0.553-0.007-1.096,0.146-1.564,0.438c-0.504,0.341-0.889,0.83-1.1,1.401c-0.287,0.763-0.424,1.575-0.398,2.391
	c-0.016,0.7,0.113,1.397,0.379,2.046c0.23,0.553,0.629,1.018,1.139,1.33c0.525,0.313,1.127,0.473,1.738,0.462
	c0.521,0.011,1.037-0.114,1.496-0.362c0.568-0.378,1.053-0.87,1.422-1.445l0.199,0.131c-0.357,0.688-0.885,1.273-1.529,1.701
	c-0.627,0.371-1.344,0.559-2.072,0.539c-1.314,0.061-2.572-0.541-3.348-1.604c-0.596-0.814-0.908-1.801-0.885-2.81
	c-0.01-0.833,0.191-1.655,0.582-2.392c0.367-0.703,0.924-1.289,1.607-1.69c0.676-0.398,1.447-0.606,2.232-0.601
	c0.648,0.005,1.285,0.164,1.859,0.463c0.117,0.072,0.248,0.12,0.385,0.141c0.113,0.001,0.221-0.043,0.301-0.122
	c0.121-0.136,0.205-0.303,0.238-0.481L142.486,4.063z M150.936,4.262l0.096,2.039h-0.244c-0.021-0.265-0.086-0.524-0.191-0.769
	c-0.115-0.231-0.299-0.423-0.525-0.548c-0.271-0.129-0.57-0.189-0.869-0.176h-1.225v6.645c-0.041,0.343,0.02,0.69,0.172,1
	c0.199,0.194,0.473,0.293,0.75,0.27h0.301v0.235h-3.686v-0.237h0.309c0.303,0.031,0.6-0.095,0.787-0.334
	c0.123-0.296,0.172-0.617,0.141-0.937V4.807h-1.051c-0.291-0.014-0.582,0.017-0.865,0.09c-0.234,0.091-0.436,0.255-0.572,0.467
	c-0.174,0.282-0.271,0.605-0.281,0.937h-0.242l0.105-2.038H150.936z M155.412,12.721v0.237h-3.723v-0.237h0.309
	c0.297,0.027,0.59-0.089,0.787-0.314c0.137-0.311,0.189-0.65,0.154-0.988V5.801c0.018-0.293-0.012-0.587-0.084-0.872
	c-0.053-0.119-0.146-0.216-0.262-0.275c-0.18-0.101-0.383-0.153-0.59-0.153h-0.307V4.262h3.725V4.5h-0.313
	c-0.295-0.026-0.584,0.09-0.777,0.313c-0.141,0.309-0.195,0.65-0.16,0.987v5.617c-0.016,0.294,0.012,0.588,0.084,0.873
	c0.055,0.119,0.15,0.217,0.268,0.275c0.18,0.101,0.379,0.154,0.584,0.154H155.412z M160.535,4.063
	c1.115-0.007,2.182,0.461,2.934,1.285c0.828,0.859,1.275,2.017,1.242,3.21c0.037,1.218-0.414,2.399-1.252,3.284
	c-0.773,0.848-1.873,1.325-3.02,1.313c-1.143,0.025-2.242-0.439-3.021-1.276c-0.832-0.894-1.271-2.083-1.221-3.304
	c-0.045-1.277,0.471-2.511,1.41-3.379c0.791-0.746,1.846-1.152,2.934-1.132L160.535,4.063z M160.412,4.529
	c-0.727-0.023-1.42,0.297-1.873,0.866c-0.645,0.919-0.955,2.031-0.879,3.151c-0.076,1.166,0.244,2.324,0.91,3.284
	c0.445,0.568,1.135,0.89,1.855,0.864c0.787,0.014,1.535-0.34,2.023-0.957c0.605-0.883,0.887-1.947,0.799-3.014
	c0.086-1.176-0.227-2.345-0.885-3.321c-0.473-0.583-1.195-0.906-1.943-0.872L160.412,4.529z M165.043,4.261h2.363l5.32,6.523V5.768
	c0.041-0.344-0.021-0.692-0.18-1c-0.199-0.195-0.473-0.294-0.75-0.27h-0.301V4.261h3.02v0.237h-0.307
	c-0.303-0.031-0.6,0.095-0.789,0.334c-0.123,0.296-0.17,0.617-0.141,0.936v7.33h-0.23l-5.723-7.002v5.354
	c-0.041,0.343,0.02,0.69,0.174,1.001c0.199,0.193,0.473,0.291,0.75,0.27h0.307v0.237h-3.02v-0.237h0.301
	c0.301,0.029,0.6-0.096,0.787-0.334c0.123-0.296,0.172-0.617,0.141-0.937V5.408c-0.17-0.214-0.363-0.409-0.574-0.583
	c-0.178-0.116-0.371-0.204-0.574-0.263c-0.184-0.045-0.375-0.064-0.564-0.058L165.043,4.261z"/>
<g enable-background="new    ">
	<path d="M33.821,12.084l0.36,0.076l-1.265,4.012H21.469v-0.403h0.556c0.625,0,1.072-0.204,1.341-0.61
		c0.152-0.232,0.229-0.771,0.229-1.613v-9.54c0-0.923-0.102-1.501-0.305-1.734c-0.283-0.32-0.705-0.479-1.265-0.479h-0.556V1.388
		h6.694v0.403c-0.785-0.007-1.335,0.065-1.652,0.218c-0.316,0.153-0.532,0.346-0.648,0.578s-0.174,0.789-0.174,1.668v9.29
		c0,0.604,0.058,1.018,0.174,1.242c0.087,0.152,0.222,0.266,0.403,0.338s0.749,0.109,1.701,0.109h1.08
		c1.134,0,1.93-0.084,2.388-0.251c0.458-0.167,0.875-0.464,1.253-0.889S33.443,12.999,33.821,12.084z"/>
</g>
</svg>
