<?xml version="1.0" encoding="utf-8"?>
<!-- Generator: Adobe Illustrator 16.0.0, SVG Export Plug-In . SVG Version: 6.00 Build 0)  -->
<!DOCTYPE svg PUBLIC "-//W3C//DTD SVG 1.1//EN" "http://www.w3.org/Graphics/SVG/1.1/DTD/svg11.dtd">
<svg version="1.1" id="Layer_1" xmlns="http://www.w3.org/2000/svg" xmlns:xlink="http://www.w3.org/1999/xlink" x="0px" y="0px"
	 width="183px" height="20px" viewBox="0 0 183 20" enable-background="new 0 0 183 20" xml:space="preserve">
<g>
	<g>
		<path fill="#30619A" d="M34.178,12.095l0.287,0.061l-1.008,3.195h-9.114v-0.321h0.444c0.416,0.037,0.822-0.147,1.066-0.486
			c0.16-0.407,0.223-0.848,0.183-1.284V5.663c0.056-0.474-0.028-0.953-0.243-1.38c-0.263-0.27-0.631-0.409-1.007-0.382h-0.443V3.579
			h5.333v0.322c-0.445-0.033-0.893,0.025-1.314,0.173c-0.22,0.091-0.402,0.253-0.519,0.46c-0.124,0.432-0.171,0.881-0.139,1.328
			v7.396c-0.024,0.336,0.021,0.673,0.135,0.991c0.073,0.123,0.187,0.219,0.321,0.268c0.446,0.084,0.901,0.113,1.354,0.088h0.858
			c0.641,0.031,1.281-0.037,1.901-0.201c0.387-0.148,0.729-0.391,0.999-0.707C33.658,13.214,33.964,12.674,34.178,12.095z
			 M43.32,3.579l0.131,2.762h-0.33c-0.029-0.359-0.118-0.711-0.261-1.042c-0.159-0.313-0.408-0.571-0.716-0.741
			c-0.367-0.174-0.771-0.256-1.177-0.238h-1.655v8.991c-0.055,0.465,0.027,0.935,0.234,1.354c0.27,0.262,0.641,0.395,1.016,0.364
			h0.408v0.321h-4.991v-0.321h0.417c0.407,0.04,0.807-0.13,1.06-0.451c0.167-0.4,0.232-0.836,0.19-1.268V4.317h-1.415
			c-0.395-0.019-0.79,0.022-1.172,0.121c-0.317,0.124-0.589,0.346-0.772,0.634c-0.236,0.382-0.367,0.818-0.383,1.267h-0.329
			l0.14-2.76H43.32z M44.021,15.351v-0.321h0.445c0.412,0.04,0.815-0.142,1.059-0.478c0.166-0.406,0.232-0.848,0.191-1.285V5.663
			c0.055-0.475-0.031-0.954-0.248-1.38c-0.263-0.27-0.631-0.409-1.007-0.382h-0.444V3.579h4.792c1.364-0.064,2.728,0.14,4.015,0.6
			c0.932,0.413,1.708,1.114,2.213,2c0.571,0.979,0.861,2.096,0.838,3.229c0.048,1.508-0.484,2.977-1.488,4.104
			c-1.117,1.227-2.818,1.84-5.104,1.84H44.021z M47.381,14.5c0.607,0.146,1.229,0.228,1.852,0.243
			c1.266,0.031,2.482-0.484,3.34-1.414c0.927-1.057,1.403-2.435,1.328-3.838c0.078-1.406-0.398-2.786-1.328-3.844
			c-0.883-0.938-2.125-1.45-3.411-1.408c-0.601,0.012-1.198,0.096-1.778,0.252L47.381,14.5z M71.349,3.311l0.269,4h-0.269
			c-0.237-0.999-0.772-1.901-1.536-2.587c-0.684-0.531-1.53-0.811-2.396-0.787c-0.748-0.011-1.482,0.195-2.117,0.592
			c-0.683,0.461-1.203,1.125-1.488,1.896c-0.391,1.034-0.576,2.135-0.543,3.238c-0.021,0.949,0.152,1.891,0.512,2.77
			c0.312,0.746,0.851,1.376,1.541,1.798c0.709,0.423,1.522,0.64,2.348,0.626c0.705,0.014,1.402-0.155,2.023-0.491
			c0.77-0.509,1.426-1.173,1.926-1.948l0.269,0.173c-0.482,0.93-1.192,1.722-2.064,2.301c-0.847,0.502-1.819,0.755-2.804,0.729
			c-1.779,0.082-3.48-0.733-4.531-2.171c-0.807-1.101-1.229-2.438-1.198-3.802c-0.012-1.129,0.26-2.242,0.79-3.238
			c0.495-0.951,1.249-1.744,2.174-2.287c0.916-0.541,1.962-0.822,3.025-0.814c0.877,0.006,1.74,0.22,2.519,0.625
			c0.158,0.098,0.335,0.163,0.519,0.19c0.152,0.001,0.3-0.058,0.408-0.165c0.164-0.184,0.275-0.408,0.321-0.65L71.349,3.311z
			 M76.77,7.163c1.131-0.035,2.21,0.477,2.9,1.373c0.611,0.762,0.94,1.713,0.928,2.691c-0.008,0.749-0.184,1.487-0.512,2.16
			c-0.295,0.678-0.785,1.252-1.407,1.65c-0.601,0.371-1.294,0.563-2,0.556c-1.132,0.032-2.204-0.506-2.855-1.433
			c-0.588-0.779-0.901-1.732-0.894-2.709c0.006-0.758,0.189-1.503,0.539-2.176c0.309-0.661,0.805-1.217,1.428-1.597
			c0.566-0.337,1.215-0.515,1.873-0.515V7.163z M76.501,7.728c-0.327,0.006-0.646,0.1-0.925,0.272
			c-0.348,0.229-0.611,0.566-0.75,0.96c-0.21,0.563-0.307,1.161-0.287,1.762c-0.028,1.042,0.209,2.074,0.69,3
			c0.31,0.737,1.019,1.229,1.818,1.259c0.548,0.007,1.065-0.252,1.389-0.694c0.431-0.718,0.622-1.554,0.547-2.387
			c0.066-1.182-0.253-2.352-0.911-3.334c-0.35-0.525-0.94-0.839-1.571-0.836V7.728z M83.953,8.857
			c0.58-0.579,0.921-0.911,1.025-0.999c0.252-0.214,0.535-0.387,0.842-0.512c0.283-0.117,0.588-0.18,0.895-0.182
			c0.465-0.012,0.92,0.143,1.284,0.434c0.379,0.324,0.634,0.769,0.721,1.26c0.421-0.541,0.931-1.003,1.511-1.367
			c0.389-0.212,0.824-0.324,1.268-0.326c0.398-0.007,0.79,0.106,1.124,0.326c0.361,0.266,0.632,0.637,0.772,1.063
			c0.151,0.512,0.216,1.047,0.191,1.58v3.42c-0.02,0.346,0.018,0.691,0.112,1.024c0.07,0.14,0.183,0.253,0.321,0.325
			c0.24,0.106,0.502,0.152,0.764,0.135v0.313h-3.926v-0.313h0.165c0.28,0.016,0.56-0.054,0.799-0.2
			c0.145-0.11,0.246-0.267,0.286-0.444c0.033-0.279,0.045-0.561,0.035-0.842v-3.418c0.036-0.469-0.043-0.94-0.229-1.372
			c-0.229-0.373-0.648-0.587-1.085-0.556c-0.322,0.004-0.639,0.083-0.925,0.23c-0.413,0.23-0.792,0.519-1.124,0.855l-0.017,0.095
			l0.017,0.37v3.794c-0.022,0.341,0.008,0.684,0.092,1.016c0.074,0.146,0.194,0.264,0.343,0.334
			c0.272,0.108,0.566,0.154,0.859,0.135v0.315h-4.02v-0.313c0.312,0.025,0.623-0.028,0.907-0.156
			c0.168-0.109,0.291-0.275,0.344-0.469c0.041-0.285,0.055-0.572,0.043-0.859v-3.42c0.037-0.484-0.062-0.969-0.287-1.398
			c-0.233-0.359-0.639-0.57-1.066-0.555c-0.326,0.003-0.646,0.09-0.93,0.252c-0.424,0.209-0.801,0.502-1.111,0.859v4.262
			c-0.023,0.342,0.014,0.686,0.107,1.016c0.066,0.148,0.18,0.272,0.322,0.352c0.276,0.1,0.57,0.14,0.863,0.117v0.313h-3.932v-0.313
			c0.26,0.018,0.521-0.021,0.764-0.117c0.148-0.082,0.266-0.213,0.33-0.37c0.096-0.322,0.133-0.659,0.112-0.994V10.52
			c0.018-0.565-0.009-1.132-0.077-1.692c-0.02-0.148-0.087-0.287-0.191-0.395c-0.103-0.078-0.229-0.115-0.355-0.109
			c-0.201,0.009-0.397,0.053-0.582,0.131l-0.131-0.313L83.58,7.17h0.37L83.953,8.857z M97.604,8.857
			c0.58-0.579,0.921-0.911,1.025-0.999c0.251-0.213,0.535-0.385,0.84-0.508c0.283-0.118,0.587-0.18,0.895-0.182
			c0.465-0.012,0.92,0.143,1.283,0.434c0.38,0.323,0.635,0.769,0.721,1.26c0.421-0.541,0.932-1.004,1.512-1.368
			c0.389-0.211,0.824-0.323,1.267-0.325c0.399-0.007,0.791,0.106,1.124,0.325c0.363,0.266,0.635,0.638,0.777,1.063
			c0.151,0.513,0.217,1.047,0.191,1.58v3.42c-0.02,0.346,0.018,0.691,0.112,1.025c0.07,0.139,0.183,0.253,0.321,0.324
			c0.24,0.107,0.502,0.153,0.764,0.135v0.309h-3.926v-0.313h0.166c0.279,0.016,0.559-0.054,0.798-0.2
			c0.146-0.11,0.247-0.267,0.286-0.444c0.033-0.279,0.045-0.561,0.035-0.842v-3.418c0.035-0.47-0.045-0.94-0.234-1.372
			c-0.229-0.373-0.647-0.587-1.084-0.556c-0.322,0.004-0.639,0.083-0.925,0.23c-0.412,0.23-0.789,0.519-1.12,0.855l-0.018,0.095
			l0.018,0.37v3.794c-0.023,0.341,0.008,0.684,0.091,1.016c0.074,0.146,0.194,0.264,0.343,0.334
			c0.273,0.108,0.566,0.154,0.859,0.135v0.315h-4.02v-0.313c0.312,0.025,0.623-0.028,0.908-0.156
			c0.168-0.109,0.29-0.275,0.343-0.469c0.041-0.285,0.056-0.572,0.044-0.859v-3.42c0.037-0.484-0.063-0.969-0.287-1.398
			c-0.234-0.359-0.639-0.57-1.067-0.555C99.32,8.184,99,8.271,98.717,8.433c-0.424,0.209-0.801,0.502-1.111,0.859v4.262
			c-0.023,0.342,0.014,0.686,0.108,1.016c0.065,0.148,0.179,0.272,0.321,0.352c0.276,0.1,0.57,0.14,0.863,0.117v0.313h-3.934v-0.313
			c0.26,0.018,0.521-0.021,0.764-0.117c0.148-0.082,0.266-0.213,0.33-0.37c0.096-0.322,0.133-0.659,0.112-0.994V10.52
			c0.018-0.565-0.009-1.132-0.078-1.692c-0.019-0.148-0.086-0.287-0.19-0.395c-0.103-0.078-0.229-0.115-0.355-0.109
			c-0.201,0.009-0.397,0.053-0.582,0.131l-0.131-0.313L97.23,7.17h0.37L97.604,8.857z M112.781,7.165
			c1.131-0.035,2.209,0.475,2.9,1.371c0.612,0.762,0.94,1.713,0.928,2.691c-0.008,0.749-0.183,1.487-0.512,2.16
			c-0.295,0.678-0.785,1.252-1.406,1.65c-0.602,0.371-1.295,0.563-2,0.556c-1.133,0.032-2.205-0.506-2.855-1.433
			c-0.588-0.779-0.902-1.732-0.895-2.709c0.006-0.757,0.192-1.502,0.542-2.174c0.308-0.662,0.806-1.217,1.429-1.598
			C111.477,7.344,112.123,7.165,112.781,7.165z M112.514,7.729c-0.328,0.006-0.647,0.1-0.926,0.273
			c-0.348,0.229-0.611,0.566-0.75,0.959c-0.21,0.563-0.307,1.162-0.287,1.762c-0.027,1.041,0.21,2.072,0.69,2.995
			c0.31,0.738,1.019,1.229,1.818,1.259c0.548,0.008,1.065-0.252,1.39-0.693c0.43-0.718,0.621-1.555,0.546-2.388
			c0.066-1.181-0.253-2.351-0.911-3.333C113.733,8.039,113.144,7.726,112.514,7.729L112.514,7.729z M123.221,14.456
			c-0.324,0.357-0.709,0.652-1.137,0.873c-0.375,0.178-0.784,0.268-1.198,0.265c-0.883-0.007-1.716-0.406-2.274-1.09
			c-0.666-0.776-1.014-1.776-0.972-2.8c-0.002-1.134,0.377-2.236,1.076-3.129c0.632-0.902,1.668-1.434,2.769-1.42
			c0.646-0.021,1.271,0.219,1.736,0.667V6.356c0.018-0.561-0.004-1.12-0.064-1.676c-0.02-0.16-0.091-0.311-0.204-0.426
			c-0.099-0.077-0.222-0.117-0.347-0.112c-0.207,0.013-0.409,0.06-0.6,0.14l-0.113-0.305l2.371-0.971h0.391v9.191
			c-0.018,0.569,0.004,1.139,0.064,1.704c0.021,0.162,0.094,0.313,0.209,0.43c0.092,0.08,0.211,0.123,0.334,0.122
			c0.215-0.014,0.426-0.064,0.625-0.148l0.096,0.304l-2.365,0.984h-0.4L123.221,14.456z M123.221,13.849V9.751
			c-0.03-0.376-0.137-0.742-0.313-1.076c-0.156-0.305-0.396-0.559-0.691-0.732c-0.252-0.156-0.541-0.241-0.837-0.248
			c-0.534,0.012-1.035,0.264-1.363,0.686c-0.575,0.754-0.856,1.693-0.79,2.64c-0.063,0.957,0.207,1.906,0.764,2.687
			c0.392,0.561,1.021,0.905,1.704,0.934C122.292,14.604,122.847,14.317,123.221,13.849z M128.338,3.007
			c0.232-0.004,0.457,0.089,0.62,0.256c0.167,0.163,0.261,0.388,0.257,0.621c0.003,0.234-0.09,0.461-0.257,0.625
			c-0.161,0.17-0.386,0.265-0.62,0.262c-0.236,0.002-0.462-0.092-0.625-0.262c-0.17-0.163-0.265-0.389-0.262-0.625
			c-0.004-0.233,0.09-0.458,0.257-0.621C127.873,3.095,128.102,3.002,128.338,3.007z M129.059,7.165v6.389
			c-0.021,0.335,0.016,0.672,0.107,0.994c0.063,0.155,0.177,0.285,0.322,0.37c0.246,0.101,0.512,0.142,0.776,0.122v0.311h-3.862
			v-0.313c0.266,0.021,0.532-0.018,0.781-0.113c0.143-0.086,0.254-0.215,0.316-0.369c0.1-0.324,0.139-0.662,0.117-0.999v-3.067
			c0.018-0.559-0.008-1.119-0.078-1.675c-0.02-0.146-0.087-0.281-0.19-0.386c-0.103-0.077-0.228-0.115-0.355-0.108
			c-0.204,0.009-0.404,0.052-0.593,0.13l-0.121-0.313l2.395-0.972L129.059,7.165z M133.386,4.786v2.613h1.86v0.607h-1.857v5.156
			c-0.037,0.361,0.041,0.726,0.223,1.041c0.137,0.174,0.348,0.273,0.568,0.269c0.199-0.003,0.393-0.063,0.556-0.178
			c0.188-0.13,0.333-0.313,0.417-0.524h0.338c-0.157,0.502-0.457,0.948-0.863,1.283c-0.322,0.27-0.727,0.421-1.146,0.43
			c-0.275-0.002-0.545-0.079-0.781-0.222c-0.252-0.146-0.45-0.368-0.564-0.636c-0.143-0.408-0.204-0.841-0.182-1.272V8.007h-1.26
			V7.722c0.361-0.156,0.692-0.375,0.977-0.647c0.344-0.317,0.644-0.682,0.889-1.081c0.213-0.389,0.398-0.792,0.556-1.206
			L133.386,4.786z M137.86,3.009c0.233-0.004,0.458,0.088,0.62,0.256c0.168,0.162,0.261,0.387,0.257,0.621
			c0.003,0.234-0.089,0.46-0.257,0.625c-0.16,0.17-0.386,0.264-0.62,0.261c-0.235,0.003-0.462-0.091-0.625-0.261
			c-0.169-0.164-0.265-0.39-0.261-0.625c-0.004-0.234,0.089-0.459,0.256-0.621c0.166-0.17,0.394-0.263,0.63-0.258V3.009z
			 M138.581,7.166v6.39c-0.021,0.334,0.016,0.671,0.108,0.994c0.063,0.154,0.176,0.285,0.321,0.369
			c0.246,0.101,0.513,0.143,0.777,0.122v0.31h-3.863v-0.313c0.266,0.021,0.532-0.018,0.782-0.113
			c0.143-0.086,0.254-0.215,0.316-0.369c0.099-0.324,0.139-0.662,0.117-0.999v-3.067c0.018-0.559-0.009-1.119-0.078-1.675
			c-0.02-0.146-0.088-0.281-0.191-0.386c-0.102-0.077-0.228-0.115-0.355-0.108c-0.203,0.009-0.404,0.052-0.592,0.13l-0.122-0.313
			l2.396-0.972H138.581z M141.937,10.396c-0.063,1,0.242,1.988,0.859,2.777c0.491,0.629,1.242,0.999,2.04,1.007
			c0.488,0.011,0.965-0.141,1.358-0.43c0.455-0.39,0.791-0.899,0.968-1.472l0.27,0.174c-0.131,0.811-0.499,1.564-1.06,2.165
			c-0.55,0.636-1.355,0.993-2.196,0.977c-0.941,0.006-1.838-0.401-2.452-1.116c-0.712-0.832-1.077-1.905-1.021-2.999
			c-0.07-1.155,0.305-2.293,1.047-3.181c0.665-0.748,1.625-1.165,2.625-1.143c0.824-0.027,1.621,0.293,2.197,0.881
			c0.592,0.639,0.901,1.488,0.858,2.357L141.937,10.396z M141.937,9.892h3.681c-0.003-0.366-0.064-0.73-0.183-1.076
			c-0.136-0.313-0.36-0.579-0.646-0.764c-0.267-0.18-0.579-0.275-0.899-0.278c-0.487,0.003-0.953,0.206-1.288,0.56
			C142.199,8.757,141.965,9.309,141.937,9.892L141.937,9.892z M153.451,7.165v2.709h-0.286c-0.114-0.646-0.408-1.248-0.847-1.736
			c-0.365-0.314-0.834-0.479-1.314-0.461c-0.355-0.016-0.705,0.098-0.981,0.322c-0.224,0.169-0.36,0.431-0.37,0.711
			c-0.008,0.303,0.091,0.598,0.277,0.834c0.307,0.328,0.68,0.586,1.094,0.755l1.268,0.616c1.176,0.572,1.763,1.328,1.763,2.266
			c0.021,0.681-0.284,1.33-0.819,1.749c-0.515,0.433-1.166,0.669-1.837,0.667c-0.565-0.012-1.126-0.1-1.667-0.261
			c-0.15-0.051-0.309-0.08-0.469-0.087c-0.139,0.004-0.263,0.092-0.313,0.223h-0.287v-2.838h0.287
			c0.102,0.693,0.428,1.335,0.926,1.828c0.415,0.394,0.965,0.614,1.537,0.616c0.358,0.015,0.709-0.112,0.976-0.353
			c0.243-0.213,0.381-0.522,0.378-0.846c0.008-0.381-0.145-0.746-0.421-1.007c-0.511-0.419-1.076-0.767-1.68-1.034
			c-0.62-0.26-1.182-0.644-1.649-1.127c-0.27-0.359-0.408-0.801-0.391-1.25c-0.016-0.617,0.229-1.213,0.672-1.641
			c0.467-0.447,1.096-0.686,1.741-0.66c0.387,0.013,0.77,0.08,1.138,0.199c0.191,0.066,0.391,0.109,0.592,0.131
			c0.077,0.005,0.154-0.017,0.217-0.061c0.078-0.076,0.141-0.168,0.183-0.27L153.451,7.165z M156.365,3
			c0.392,0.001,0.777,0.093,1.127,0.269c0.355,0.172,0.652,0.441,0.857,0.777c0.199,0.315,0.306,0.68,0.308,1.053
			c-0.002,0.37-0.106,0.732-0.304,1.045c-0.203,0.335-0.498,0.604-0.849,0.777c-0.353,0.182-0.743,0.275-1.14,0.274
			c-0.396,0.001-0.785-0.093-1.137-0.274c-0.352-0.174-0.645-0.443-0.848-0.777c-0.197-0.313-0.303-0.675-0.305-1.045
			c0.002-0.373,0.109-0.737,0.31-1.053c0.204-0.336,0.502-0.605,0.856-0.777C155.591,3.093,155.976,3.001,156.365,3z M156.365,3.181
			c-0.356,0.002-0.708,0.087-1.026,0.249c-0.323,0.157-0.594,0.403-0.78,0.709c-0.183,0.288-0.279,0.622-0.281,0.963
			c0.002,0.337,0.098,0.665,0.276,0.95c0.186,0.306,0.454,0.552,0.773,0.711c0.32,0.166,0.676,0.254,1.037,0.254
			c0.364,0.001,0.722-0.086,1.045-0.254c0.319-0.159,0.587-0.406,0.772-0.711c0.179-0.285,0.273-0.615,0.275-0.953
			c-0.001-0.341-0.098-0.674-0.28-0.963c-0.187-0.307-0.458-0.553-0.78-0.709C157.076,3.265,156.724,3.181,156.365,3.181
			L156.365,3.181z M155.101,3.809h1.245c0.254-0.017,0.505,0.052,0.714,0.194c0.152,0.107,0.243,0.281,0.245,0.469
			c0.001,0.148-0.059,0.291-0.166,0.395c-0.156,0.137-0.346,0.228-0.551,0.263l0.674,0.881c0.061,0.085,0.136,0.157,0.222,0.216
			c0.054,0.027,0.111,0.043,0.171,0.045v0.099h-0.592l-0.951-1.199h-0.246v0.914c0.009,0.059,0.042,0.11,0.092,0.144
			c0.092,0.037,0.191,0.053,0.289,0.044v0.098h-1.186V6.271c0.076,0.005,0.152-0.007,0.223-0.034c0.041-0.021,0.074-0.057,0.092-0.1
			c0.021-0.09,0.029-0.184,0.022-0.275V4.313c0.003-0.086,0-0.172-0.01-0.258c-0.014-0.044-0.043-0.081-0.082-0.105
			c-0.063-0.029-0.135-0.042-0.205-0.037V3.809z M155.865,5.042c0.188,0.009,0.377-0.015,0.558-0.069
			c0.106-0.037,0.199-0.104,0.27-0.19c0.062-0.08,0.095-0.18,0.093-0.28c0.003-0.155-0.064-0.303-0.182-0.403
			c-0.129-0.111-0.297-0.17-0.467-0.162c-0.092,0.001-0.184,0.018-0.271,0.047V5.042z"/>
	</g>
</g>
</svg>
