<svg xmlns="http://www.w3.org/2000/svg" xmlns:xlink="http://www.w3.org/1999/xlink" width="32" height="32" viewBox="0 0 32 32"><defs><clipPath id="a"><rect width="32" height="32" fill="#fff"/></clipPath><clipPath id="c"><rect width="32" height="32"/></clipPath></defs><g id="b" clip-path="url(#c)"><g clip-path="url(#a)"><g transform="translate(-38.438 -38.275)"><path d="M54.438,39.438a15,15,0,1,0,15,15,15,15,0,0,0-15-15Zm0,26.509A11.509,11.509,0,1,1,65.947,54.438,11.509,11.509,0,0,1,54.438,65.947Z" fill="#fff"/><g transform="translate(50.476 46.446)"><path d="M87.348,88.789c-.249.651-.493,1.227-.691,1.82-.633,1.893-1.288,3.78-1.856,5.693-.328,1.106.135,1.854,1.108,1.99a3.073,3.073,0,0,0,1.084-.031c2.139-.487,3.09-2.219,4.066-3.916a4.352,4.352,0,0,0-.555.533A4.849,4.849,0,0,1,88.588,96.2a.537.537,0,0,1-.414-.046c-.056-.037-.026-.246.006-.368a3.7,3.7,0,0,1,.187-.466c.832-2.015,1.674-4.026,2.485-6.05a2.511,2.511,0,0,0,.2-1.133A1.481,1.481,0,0,0,89.4,87a5.816,5.816,0,0,0-5.04,3.045,1.41,1.41,0,0,0-.082.328C85.241,89.664,86.038,88.8,87.348,88.789Z" transform="translate(-84.278 -82.285)" fill="#fff"/><circle cx="2.125" cy="2.125" r="2.125" transform="translate(3.789)" fill="#fff"/></g></g></g></g></svg>